<?xml version="1.0" encoding="UTF-8" standalone="no"?>
<svg
   xmlns:dc="http://purl.org/dc/elements/1.1/"
   xmlns:cc="http://creativecommons.org/ns#"
   xmlns:rdf="http://www.w3.org/1999/02/22-rdf-syntax-ns#"
   xmlns:svg="http://www.w3.org/2000/svg"
   xmlns="http://www.w3.org/2000/svg"
   viewBox="0 0 256 256"
   height="256"
   width="256"
   xml:space="preserve"
   id="svg8070"
   version="1.1"><metadata
     id="metadata8076"><rdf:RDF><cc:Work
         rdf:about=""><dc:format>image/svg+xml</dc:format><dc:type
           rdf:resource="http://purl.org/dc/dcmitype/StillImage" /><dc:title></dc:title></cc:Work></rdf:RDF></metadata><defs
     id="defs8074"><clipPath
       id="clipPath8086"
       clipPathUnits="userSpaceOnUse"><path
         style="clip-rule:evenodd"
         id="path8084"
         d="m 43.2,61.104 h 309.65 v 489.7 H 43.2 Z" /></clipPath><clipPath
       id="clipPath8094"
       clipPathUnits="userSpaceOnUse"><path
         style="clip-rule:evenodd"
         id="path8092"
         d="m 43.2,61.104 h 309.65 v 489.7 H 43.2 Z" /></clipPath><clipPath
       id="clipPath8106"
       clipPathUnits="userSpaceOnUse"><path
         style="clip-rule:evenodd"
         id="path8104"
         d="m 43.2,61.104 h 309.65 v 489.7 H 43.2 Z" /></clipPath><clipPath
       id="clipPath8114"
       clipPathUnits="userSpaceOnUse"><path
         style="clip-rule:evenodd"
         id="path8112"
         d="M 43.2,455.26 H 151.22 V 529.9 H 43.2 Z" /></clipPath><clipPath
       id="clipPath8122"
       clipPathUnits="userSpaceOnUse"><path
         style="clip-rule:evenodd"
         id="path8120"
         d="M 43.2,455.26 H 151.22 V 529.9 H 43.2 Z" /></clipPath><clipPath
       id="clipPath8130"
       clipPathUnits="userSpaceOnUse"><path
         style="clip-rule:evenodd"
         id="path8128"
         d="M 43.2,455.26 H 151.22 V 529.9 H 43.2 Z" /></clipPath><clipPath
       id="clipPath8138"
       clipPathUnits="userSpaceOnUse"><path
         style="clip-rule:evenodd"
         id="path8136"
         d="M 43.2,455.26 H 151.22 V 529.9 H 43.2 Z" /></clipPath><clipPath
       id="clipPath8146"
       clipPathUnits="userSpaceOnUse"><path
         style="clip-rule:evenodd"
         id="path8144"
         d="M 151.22,455.26 H 352.84 V 529.9 H 151.22 Z" /></clipPath><clipPath
       id="clipPath8154"
       clipPathUnits="userSpaceOnUse"><path
         style="clip-rule:evenodd"
         id="path8152"
         d="M 151.22,455.26 H 352.84 V 529.9 H 151.22 Z" /></clipPath><clipPath
       id="clipPath8166"
       clipPathUnits="userSpaceOnUse"><path
         style="clip-rule:evenodd"
         id="path8164"
         d="M 151.22,455.26 H 352.84 V 529.9 H 151.22 Z" /></clipPath><clipPath
       id="clipPath8178"
       clipPathUnits="userSpaceOnUse"><path
         style="clip-rule:evenodd"
         id="path8176"
         d="M 151.22,455.26 H 352.84 V 529.9 H 151.22 Z" /></clipPath><clipPath
       id="clipPath8190"
       clipPathUnits="userSpaceOnUse"><path
         style="clip-rule:evenodd"
         id="path8188"
         d="M 151.22,455.26 H 352.84 V 529.9 H 151.22 Z" /></clipPath><clipPath
       id="clipPath8202"
       clipPathUnits="userSpaceOnUse"><path
         style="clip-rule:evenodd"
         id="path8200"
         d="M 151.22,455.26 H 352.84 V 529.9 H 151.22 Z" /></clipPath><clipPath
       id="clipPath8214"
       clipPathUnits="userSpaceOnUse"><path
         style="clip-rule:evenodd"
         id="path8212"
         d="M 151.22,455.26 H 352.84 V 529.9 H 151.22 Z" /></clipPath><clipPath
       id="clipPath8226"
       clipPathUnits="userSpaceOnUse"><path
         style="clip-rule:evenodd"
         id="path8224"
         d="M 151.22,455.26 H 352.84 V 529.9 H 151.22 Z" /></clipPath><clipPath
       id="clipPath8238"
       clipPathUnits="userSpaceOnUse"><path
         style="clip-rule:evenodd"
         id="path8236"
         d="M 151.22,455.26 H 352.84 V 529.9 H 151.22 Z" /></clipPath><clipPath
       id="clipPath8246"
       clipPathUnits="userSpaceOnUse"><path
         style="clip-rule:evenodd"
         id="path8244"
         d="M 151.22,455.26 H 352.84 V 529.9 H 151.22 Z" /></clipPath><clipPath
       id="clipPath8258"
       clipPathUnits="userSpaceOnUse"><path
         style="clip-rule:evenodd"
         id="path8256"
         d="M 151.22,455.26 H 352.84 V 529.9 H 151.22 Z" /></clipPath><clipPath
       id="clipPath8266"
       clipPathUnits="userSpaceOnUse"><path
         style="clip-rule:evenodd"
         id="path8264"
         d="M 151.22,455.26 H 352.84 V 529.9 H 151.22 Z" /></clipPath><clipPath
       id="clipPath8278"
       clipPathUnits="userSpaceOnUse"><path
         style="clip-rule:evenodd"
         id="path8276"
         d="M 151.22,455.26 H 352.84 V 529.9 H 151.22 Z" /></clipPath><clipPath
       id="clipPath8290"
       clipPathUnits="userSpaceOnUse"><path
         style="clip-rule:evenodd"
         id="path8288"
         d="M 151.22,455.26 H 352.84 V 529.9 H 151.22 Z" /></clipPath><clipPath
       id="clipPath8298"
       clipPathUnits="userSpaceOnUse"><path
         style="clip-rule:evenodd"
         id="path8296"
         d="m 43.2,61.104 h 309.65 v 489.7 H 43.2 Z" /></clipPath><clipPath
       id="clipPath8310"
       clipPathUnits="userSpaceOnUse"><path
         style="clip-rule:evenodd"
         id="path8308"
         d="m 43.2,61.104 h 309.65 v 489.7 H 43.2 Z" /></clipPath><clipPath
       id="clipPath8318"
       clipPathUnits="userSpaceOnUse"><path
         style="clip-rule:evenodd"
         id="path8316"
         d="m 43.2,326.95 h 108.02 v 83.544 H 43.2 Z" /></clipPath><clipPath
       id="clipPath8326"
       clipPathUnits="userSpaceOnUse"><path
         style="clip-rule:evenodd"
         id="path8324"
         d="m 43.2,326.95 h 108.02 v 83.544 H 43.2 Z" /></clipPath><clipPath
       id="clipPath8334"
       clipPathUnits="userSpaceOnUse"><path
         style="clip-rule:evenodd"
         id="path8332"
         d="m 43.2,326.95 h 108.02 v 83.544 H 43.2 Z" /></clipPath><clipPath
       id="clipPath8342"
       clipPathUnits="userSpaceOnUse"><path
         style="clip-rule:evenodd"
         id="path8340"
         d="m 151.22,326.95 h 201.62 v 83.544 H 151.22 Z" /></clipPath><clipPath
       id="clipPath8350"
       clipPathUnits="userSpaceOnUse"><path
         style="clip-rule:evenodd"
         id="path8348"
         d="m 151.22,326.95 h 201.62 v 83.544 H 151.22 Z" /></clipPath><clipPath
       id="clipPath8362"
       clipPathUnits="userSpaceOnUse"><path
         style="clip-rule:evenodd"
         id="path8360"
         d="m 151.22,326.95 h 201.62 v 83.544 H 151.22 Z" /></clipPath><clipPath
       id="clipPath8374"
       clipPathUnits="userSpaceOnUse"><path
         style="clip-rule:evenodd"
         id="path8372"
         d="m 151.22,326.95 h 201.62 v 83.544 H 151.22 Z" /></clipPath><clipPath
       id="clipPath8386"
       clipPathUnits="userSpaceOnUse"><path
         style="clip-rule:evenodd"
         id="path8384"
         d="m 151.22,326.95 h 201.62 v 83.544 H 151.22 Z" /></clipPath><clipPath
       id="clipPath8398"
       clipPathUnits="userSpaceOnUse"><path
         style="clip-rule:evenodd"
         id="path8396"
         d="m 151.22,326.95 h 201.62 v 83.544 H 151.22 Z" /></clipPath><clipPath
       id="clipPath8410"
       clipPathUnits="userSpaceOnUse"><path
         style="clip-rule:evenodd"
         id="path8408"
         d="m 151.22,326.95 h 201.62 v 83.544 H 151.22 Z" /></clipPath><clipPath
       id="clipPath8422"
       clipPathUnits="userSpaceOnUse"><path
         style="clip-rule:evenodd"
         id="path8420"
         d="m 151.22,326.95 h 201.62 v 83.544 H 151.22 Z" /></clipPath><clipPath
       id="clipPath8434"
       clipPathUnits="userSpaceOnUse"><path
         style="clip-rule:evenodd"
         id="path8432"
         d="m 151.22,326.95 h 201.62 v 83.544 H 151.22 Z" /></clipPath><clipPath
       id="clipPath8446"
       clipPathUnits="userSpaceOnUse"><path
         style="clip-rule:evenodd"
         id="path8444"
         d="m 151.22,326.95 h 201.62 v 83.544 H 151.22 Z" /></clipPath><clipPath
       id="clipPath8458"
       clipPathUnits="userSpaceOnUse"><path
         style="clip-rule:evenodd"
         id="path8456"
         d="m 151.22,326.95 h 201.62 v 83.544 H 151.22 Z" /></clipPath><clipPath
       id="clipPath8470"
       clipPathUnits="userSpaceOnUse"><path
         style="clip-rule:evenodd"
         id="path8468"
         d="m 151.22,326.95 h 201.62 v 83.544 H 151.22 Z" /></clipPath><clipPath
       id="clipPath8482"
       clipPathUnits="userSpaceOnUse"><path
         style="clip-rule:evenodd"
         id="path8480"
         d="m 151.22,326.95 h 201.62 v 83.544 H 151.22 Z" /></clipPath><clipPath
       id="clipPath8490"
       clipPathUnits="userSpaceOnUse"><path
         style="clip-rule:evenodd"
         id="path8488"
         d="m 151.22,326.95 h 201.62 v 83.544 H 151.22 Z" /></clipPath><clipPath
       id="clipPath8502"
       clipPathUnits="userSpaceOnUse"><path
         style="clip-rule:evenodd"
         id="path8500"
         d="m 151.22,326.95 h 201.62 v 83.544 H 151.22 Z" /></clipPath><clipPath
       id="clipPath8510"
       clipPathUnits="userSpaceOnUse"><path
         style="clip-rule:evenodd"
         id="path8508"
         d="m 151.22,326.95 h 201.62 v 83.544 H 151.22 Z" /></clipPath><clipPath
       id="clipPath8522"
       clipPathUnits="userSpaceOnUse"><path
         style="clip-rule:evenodd"
         id="path8520"
         d="m 151.22,326.95 h 201.62 v 83.544 H 151.22 Z" /></clipPath><clipPath
       id="clipPath8534"
       clipPathUnits="userSpaceOnUse"><path
         style="clip-rule:evenodd"
         id="path8532"
         d="m 151.22,326.95 h 201.62 v 83.544 H 151.22 Z" /></clipPath><clipPath
       id="clipPath8546"
       clipPathUnits="userSpaceOnUse"><path
         style="clip-rule:evenodd"
         id="path8544"
         d="m 151.22,326.95 h 201.62 v 83.544 H 151.22 Z" /></clipPath><clipPath
       id="clipPath8554"
       clipPathUnits="userSpaceOnUse"><path
         style="clip-rule:evenodd"
         id="path8552"
         d="m 43.2,61.104 h 309.65 v 489.7 H 43.2 Z" /></clipPath><clipPath
       id="clipPath8566"
       clipPathUnits="userSpaceOnUse"><path
         style="clip-rule:evenodd"
         id="path8564"
         d="m 43.2,61.104 h 309.65 v 489.7 H 43.2 Z" /></clipPath><clipPath
       id="clipPath8574"
       clipPathUnits="userSpaceOnUse"><path
         style="clip-rule:evenodd"
         id="path8572"
         d="m 43.2,186.41 h 108.02 v 91.464 H 43.2 Z" /></clipPath><clipPath
       id="clipPath8582"
       clipPathUnits="userSpaceOnUse"><path
         style="clip-rule:evenodd"
         id="path8580"
         d="m 43.2,186.41 h 108.02 v 91.464 H 43.2 Z" /></clipPath><clipPath
       id="clipPath8590"
       clipPathUnits="userSpaceOnUse"><path
         style="clip-rule:evenodd"
         id="path8588"
         d="m 43.2,186.41 h 108.02 v 91.464 H 43.2 Z" /></clipPath><clipPath
       id="clipPath8598"
       clipPathUnits="userSpaceOnUse"><path
         style="clip-rule:evenodd"
         id="path8596"
         d="m 151.22,186.41 h 201.62 v 91.464 H 151.22 Z" /></clipPath><clipPath
       id="clipPath8606"
       clipPathUnits="userSpaceOnUse"><path
         style="clip-rule:evenodd"
         id="path8604"
         d="m 151.22,186.41 h 201.62 v 91.464 H 151.22 Z" /></clipPath><clipPath
       id="clipPath8618"
       clipPathUnits="userSpaceOnUse"><path
         style="clip-rule:evenodd"
         id="path8616"
         d="m 151.22,186.41 h 201.62 v 91.464 H 151.22 Z" /></clipPath><clipPath
       id="clipPath8630"
       clipPathUnits="userSpaceOnUse"><path
         style="clip-rule:evenodd"
         id="path8628"
         d="m 151.22,186.41 h 201.62 v 91.464 H 151.22 Z" /></clipPath><clipPath
       id="clipPath8642"
       clipPathUnits="userSpaceOnUse"><path
         style="clip-rule:evenodd"
         id="path8640"
         d="m 151.22,186.41 h 201.62 v 91.464 H 151.22 Z" /></clipPath><clipPath
       id="clipPath8654"
       clipPathUnits="userSpaceOnUse"><path
         style="clip-rule:evenodd"
         id="path8652"
         d="m 151.22,186.41 h 201.62 v 91.464 H 151.22 Z" /></clipPath><clipPath
       id="clipPath8666"
       clipPathUnits="userSpaceOnUse"><path
         style="clip-rule:evenodd"
         id="path8664"
         d="m 151.22,186.41 h 201.62 v 91.464 H 151.22 Z" /></clipPath><clipPath
       id="clipPath8674"
       clipPathUnits="userSpaceOnUse"><path
         style="clip-rule:evenodd"
         id="path8672"
         d="m 151.22,186.41 h 201.62 v 91.464 H 151.22 Z" /></clipPath><clipPath
       id="clipPath8686"
       clipPathUnits="userSpaceOnUse"><path
         style="clip-rule:evenodd"
         id="path8684"
         d="m 151.22,186.41 h 201.62 v 91.464 H 151.22 Z" /></clipPath><clipPath
       id="clipPath8698"
       clipPathUnits="userSpaceOnUse"><path
         style="clip-rule:evenodd"
         id="path8696"
         d="m 151.22,186.41 h 201.62 v 91.464 H 151.22 Z" /></clipPath><clipPath
       id="clipPath8710"
       clipPathUnits="userSpaceOnUse"><path
         style="clip-rule:evenodd"
         id="path8708"
         d="m 151.22,186.41 h 201.62 v 91.464 H 151.22 Z" /></clipPath><clipPath
       id="clipPath8718"
       clipPathUnits="userSpaceOnUse"><path
         style="clip-rule:evenodd"
         id="path8716"
         d="m 151.22,186.41 h 201.62 v 91.464 H 151.22 Z" /></clipPath><clipPath
       id="clipPath8730"
       clipPathUnits="userSpaceOnUse"><path
         style="clip-rule:evenodd"
         id="path8728"
         d="m 151.22,186.41 h 201.62 v 91.464 H 151.22 Z" /></clipPath><clipPath
       id="clipPath8742"
       clipPathUnits="userSpaceOnUse"><path
         style="clip-rule:evenodd"
         id="path8740"
         d="m 151.22,186.41 h 201.62 v 91.464 H 151.22 Z" /></clipPath><clipPath
       id="clipPath8750"
       clipPathUnits="userSpaceOnUse"><path
         style="clip-rule:evenodd"
         id="path8748"
         d="m 151.22,186.41 h 201.62 v 91.464 H 151.22 Z" /></clipPath><clipPath
       id="clipPath8762"
       clipPathUnits="userSpaceOnUse"><path
         style="clip-rule:evenodd"
         id="path8760"
         d="m 151.22,186.41 h 201.62 v 91.464 H 151.22 Z" /></clipPath><clipPath
       id="clipPath8770"
       clipPathUnits="userSpaceOnUse"><path
         style="clip-rule:evenodd"
         id="path8768"
         d="m 43.2,61.104 h 309.65 v 489.7 H 43.2 Z" /></clipPath><clipPath
       id="clipPath8782"
       clipPathUnits="userSpaceOnUse"><path
         style="clip-rule:evenodd"
         id="path8780"
         d="m 43.2,61.104 h 309.65 v 489.7 H 43.2 Z" /></clipPath><clipPath
       id="clipPath8790"
       clipPathUnits="userSpaceOnUse"><path
         style="clip-rule:evenodd"
         id="path8788"
         d="m 43.2,53.784 h 108.02 v 83.544 H 43.2 Z" /></clipPath><clipPath
       id="clipPath8798"
       clipPathUnits="userSpaceOnUse"><path
         style="clip-rule:evenodd"
         id="path8796"
         d="m 43.2,53.784 h 108.02 v 83.544 H 43.2 Z" /></clipPath><clipPath
       id="clipPath8806"
       clipPathUnits="userSpaceOnUse"><path
         style="clip-rule:evenodd"
         id="path8804"
         d="m 43.2,53.784 h 108.02 v 83.544 H 43.2 Z" /></clipPath><clipPath
       id="clipPath8814"
       clipPathUnits="userSpaceOnUse"><path
         style="clip-rule:evenodd"
         id="path8812"
         d="m 151.22,53.784 h 201.62 v 83.544 H 151.22 Z" /></clipPath><clipPath
       id="clipPath8822"
       clipPathUnits="userSpaceOnUse"><path
         style="clip-rule:evenodd"
         id="path8820"
         d="m 151.22,53.784 h 201.62 v 83.544 H 151.22 Z" /></clipPath><clipPath
       id="clipPath8834"
       clipPathUnits="userSpaceOnUse"><path
         style="clip-rule:evenodd"
         id="path8832"
         d="m 151.22,53.784 h 201.62 v 83.544 H 151.22 Z" /></clipPath><clipPath
       id="clipPath8846"
       clipPathUnits="userSpaceOnUse"><path
         style="clip-rule:evenodd"
         id="path8844"
         d="m 151.22,53.784 h 201.62 v 83.544 H 151.22 Z" /></clipPath><clipPath
       id="clipPath8858"
       clipPathUnits="userSpaceOnUse"><path
         style="clip-rule:evenodd"
         id="path8856"
         d="m 151.22,53.784 h 201.62 v 83.544 H 151.22 Z" /></clipPath><clipPath
       id="clipPath8870"
       clipPathUnits="userSpaceOnUse"><path
         style="clip-rule:evenodd"
         id="path8868"
         d="m 151.22,53.784 h 201.62 v 83.544 H 151.22 Z" /></clipPath><clipPath
       id="clipPath8882"
       clipPathUnits="userSpaceOnUse"><path
         style="clip-rule:evenodd"
         id="path8880"
         d="m 151.22,53.784 h 201.62 v 83.544 H 151.22 Z" /></clipPath><clipPath
       id="clipPath8894"
       clipPathUnits="userSpaceOnUse"><path
         style="clip-rule:evenodd"
         id="path8892"
         d="m 151.22,53.784 h 201.62 v 83.544 H 151.22 Z" /></clipPath><clipPath
       id="clipPath8906"
       clipPathUnits="userSpaceOnUse"><path
         style="clip-rule:evenodd"
         id="path8904"
         d="m 151.22,53.784 h 201.62 v 83.544 H 151.22 Z" /></clipPath><clipPath
       id="clipPath8918"
       clipPathUnits="userSpaceOnUse"><path
         style="clip-rule:evenodd"
         id="path8916"
         d="m 151.22,53.784 h 201.62 v 83.544 H 151.22 Z" /></clipPath><clipPath
       id="clipPath8930"
       clipPathUnits="userSpaceOnUse"><path
         style="clip-rule:evenodd"
         id="path8928"
         d="m 151.22,53.784 h 201.62 v 83.544 H 151.22 Z" /></clipPath><clipPath
       id="clipPath8942"
       clipPathUnits="userSpaceOnUse"><path
         style="clip-rule:evenodd"
         id="path8940"
         d="m 151.22,53.784 h 201.62 v 83.544 H 151.22 Z" /></clipPath><clipPath
       id="clipPath8954"
       clipPathUnits="userSpaceOnUse"><path
         style="clip-rule:evenodd"
         id="path8952"
         d="m 151.22,53.784 h 201.62 v 83.544 H 151.22 Z" /></clipPath><clipPath
       id="clipPath8962"
       clipPathUnits="userSpaceOnUse"><path
         style="clip-rule:evenodd"
         id="path8960"
         d="m 151.22,53.784 h 201.62 v 83.544 H 151.22 Z" /></clipPath><clipPath
       id="clipPath8974"
       clipPathUnits="userSpaceOnUse"><path
         style="clip-rule:evenodd"
         id="path8972"
         d="m 151.22,53.784 h 201.62 v 83.544 H 151.22 Z" /></clipPath><clipPath
       id="clipPath8986"
       clipPathUnits="userSpaceOnUse"><path
         style="clip-rule:evenodd"
         id="path8984"
         d="m 151.22,53.784 h 201.62 v 83.544 H 151.22 Z" /></clipPath><clipPath
       id="clipPath8994"
       clipPathUnits="userSpaceOnUse"><path
         style="clip-rule:evenodd"
         id="path8992"
         d="m 151.22,53.784 h 201.62 v 83.544 H 151.22 Z" /></clipPath><clipPath
       id="clipPath9006"
       clipPathUnits="userSpaceOnUse"><path
         style="clip-rule:evenodd"
         id="path9004"
         d="m 151.22,53.784 h 201.62 v 83.544 H 151.22 Z" /></clipPath><clipPath
       id="clipPath9018"
       clipPathUnits="userSpaceOnUse"><path
         style="clip-rule:evenodd"
         id="path9016"
         d="m 151.22,53.784 h 201.62 v 83.544 H 151.22 Z" /></clipPath><clipPath
       id="clipPath9026"
       clipPathUnits="userSpaceOnUse"><path
         style="clip-rule:evenodd"
         id="path9024"
         d="m 151.22,53.784 h 201.62 v 83.544 H 151.22 Z" /></clipPath><clipPath
       id="clipPath9038"
       clipPathUnits="userSpaceOnUse"><path
         style="clip-rule:evenodd"
         id="path9036"
         d="m 151.22,53.784 h 201.62 v 83.544 H 151.22 Z" /></clipPath><clipPath
       id="clipPath9050"
       clipPathUnits="userSpaceOnUse"><path
         style="clip-rule:evenodd"
         id="path9048"
         d="m 151.22,53.784 h 201.62 v 83.544 H 151.22 Z" /></clipPath><clipPath
       id="clipPath9062"
       clipPathUnits="userSpaceOnUse"><path
         style="clip-rule:evenodd"
         id="path9060"
         d="m 151.22,53.784 h 201.62 v 83.544 H 151.22 Z" /></clipPath><clipPath
       id="clipPath9070"
       clipPathUnits="userSpaceOnUse"><path
         style="clip-rule:evenodd"
         id="path9068"
         d="m 43.2,61.104 h 309.65 v 489.7 H 43.2 Z" /></clipPath><clipPath
       id="clipPath9080"
       clipPathUnits="userSpaceOnUse"><path
         style="clip-rule:evenodd"
         id="path9078"
         d="m 352.85,61.104 h 43.224 v 489.7 H 352.85 Z" /></clipPath><clipPath
       id="clipPath9088"
       clipPathUnits="userSpaceOnUse"><path
         style="clip-rule:evenodd"
         id="path9086"
         d="m 352.85,61.104 h 43.224 v 489.7 H 352.85 Z" /></clipPath><clipPath
       id="clipPath9096"
       clipPathUnits="userSpaceOnUse"><path
         style="clip-rule:evenodd"
         id="path9094"
         d="m 396.07,61.104 h 43.2 v 489.7 h -43.2 z" /></clipPath><clipPath
       id="clipPath9104"
       clipPathUnits="userSpaceOnUse"><path
         style="clip-rule:evenodd"
         id="path9102"
         d="m 396.07,61.104 h 43.2 v 489.7 h -43.2 z" /></clipPath><clipPath
       id="clipPath9112"
       clipPathUnits="userSpaceOnUse"><path
         style="clip-rule:evenodd"
         id="path9110"
         d="m 439.27,61.104 h 309.65 v 489.7 H 439.27 Z" /></clipPath><clipPath
       id="clipPath9120"
       clipPathUnits="userSpaceOnUse"><path
         style="clip-rule:evenodd"
         id="path9118"
         d="m 439.27,61.104 h 309.65 v 489.7 H 439.27 Z" /></clipPath><clipPath
       id="clipPath9128"
       clipPathUnits="userSpaceOnUse"><path
         style="clip-rule:evenodd"
         id="path9126"
         d="m 439.27,61.104 h 309.65 v 489.7 H 439.27 Z" /></clipPath><clipPath
       id="clipPath9140"
       clipPathUnits="userSpaceOnUse"><path
         style="clip-rule:evenodd"
         id="path9138"
         d="m 439.27,61.104 h 309.65 v 489.7 H 439.27 Z" /></clipPath><clipPath
       id="clipPath9148"
       clipPathUnits="userSpaceOnUse"><path
         style="clip-rule:evenodd"
         id="path9146"
         d="m 439.27,61.104 h 309.65 v 489.7 H 439.27 Z" /></clipPath><clipPath
       id="clipPath9156"
       clipPathUnits="userSpaceOnUse"><path
         style="clip-rule:evenodd"
         id="path9154"
         d="M 439.27,415.18 H 547.29 V 481.3 H 439.27 Z" /></clipPath><clipPath
       id="clipPath9164"
       clipPathUnits="userSpaceOnUse"><path
         style="clip-rule:evenodd"
         id="path9162"
         d="M 439.27,415.18 H 547.29 V 481.3 H 439.27 Z" /></clipPath><clipPath
       id="clipPath9172"
       clipPathUnits="userSpaceOnUse"><path
         style="clip-rule:evenodd"
         id="path9170"
         d="M 547.3,415.18 H 748.92 V 481.3 H 547.3 Z" /></clipPath><clipPath
       id="clipPath9180"
       clipPathUnits="userSpaceOnUse"><path
         style="clip-rule:evenodd"
         id="path9178"
         d="M 547.3,415.18 H 748.92 V 481.3 H 547.3 Z" /></clipPath><clipPath
       id="clipPath9188"
       clipPathUnits="userSpaceOnUse"><path
         style="clip-rule:evenodd"
         id="path9186"
         d="M 547.3,415.18 H 748.92 V 481.3 H 547.3 Z" /></clipPath><clipPath
       id="clipPath9196"
       clipPathUnits="userSpaceOnUse"><path
         style="clip-rule:evenodd"
         id="path9194"
         d="M 547.3,415.18 H 748.92 V 481.3 H 547.3 Z" /></clipPath><clipPath
       id="clipPath9204"
       clipPathUnits="userSpaceOnUse"><path
         style="clip-rule:evenodd"
         id="path9202"
         d="m 439.27,61.104 h 309.65 v 489.7 H 439.27 Z" /></clipPath><clipPath
       id="clipPath9212"
       clipPathUnits="userSpaceOnUse"><path
         style="clip-rule:evenodd"
         id="path9210"
         d="m 439.27,304.03 h 108.02 v 66.24 H 439.27 Z" /></clipPath><clipPath
       id="clipPath9220"
       clipPathUnits="userSpaceOnUse"><path
         style="clip-rule:evenodd"
         id="path9218"
         d="m 439.27,304.03 h 108.02 v 66.24 H 439.27 Z" /></clipPath><clipPath
       id="clipPath9228"
       clipPathUnits="userSpaceOnUse"><path
         style="clip-rule:evenodd"
         id="path9226"
         d="m 547.3,304.03 h 201.62 v 66.24 H 547.3 Z" /></clipPath><clipPath
       id="clipPath9236"
       clipPathUnits="userSpaceOnUse"><path
         style="clip-rule:evenodd"
         id="path9234"
         d="m 547.3,304.03 h 201.62 v 66.24 H 547.3 Z" /></clipPath><clipPath
       id="clipPath9244"
       clipPathUnits="userSpaceOnUse"><path
         style="clip-rule:evenodd"
         id="path9242"
         d="m 547.3,304.03 h 201.62 v 66.24 H 547.3 Z" /></clipPath><clipPath
       id="clipPath9252"
       clipPathUnits="userSpaceOnUse"><path
         style="clip-rule:evenodd"
         id="path9250"
         d="m 547.3,304.03 h 201.62 v 66.24 H 547.3 Z" /></clipPath><clipPath
       id="clipPath9260"
       clipPathUnits="userSpaceOnUse"><path
         style="clip-rule:evenodd"
         id="path9258"
         d="m 439.27,61.104 h 309.65 v 489.7 H 439.27 Z" /></clipPath><clipPath
       id="clipPath9268"
       clipPathUnits="userSpaceOnUse"><path
         style="clip-rule:evenodd"
         id="path9266"
         d="m 439.27,188.81 h 108.02 v 66.24 H 439.27 Z" /></clipPath><clipPath
       id="clipPath9276"
       clipPathUnits="userSpaceOnUse"><path
         style="clip-rule:evenodd"
         id="path9274"
         d="m 439.27,188.81 h 108.02 v 66.24 H 439.27 Z" /></clipPath><clipPath
       id="clipPath9284"
       clipPathUnits="userSpaceOnUse"><path
         style="clip-rule:evenodd"
         id="path9282"
         d="m 547.3,188.81 h 201.62 v 66.24 H 547.3 Z" /></clipPath><clipPath
       id="clipPath9292"
       clipPathUnits="userSpaceOnUse"><path
         style="clip-rule:evenodd"
         id="path9290"
         d="m 547.3,188.81 h 201.62 v 66.24 H 547.3 Z" /></clipPath><clipPath
       id="clipPath9300"
       clipPathUnits="userSpaceOnUse"><path
         style="clip-rule:evenodd"
         id="path9298"
         d="m 547.3,188.81 h 201.62 v 66.24 H 547.3 Z" /></clipPath><clipPath
       id="clipPath9308"
       clipPathUnits="userSpaceOnUse"><path
         style="clip-rule:evenodd"
         id="path9306"
         d="m 547.3,188.81 h 201.62 v 66.24 H 547.3 Z" /></clipPath><clipPath
       id="clipPath9316"
       clipPathUnits="userSpaceOnUse"><path
         style="clip-rule:evenodd"
         id="path9314"
         d="m 439.27,61.104 h 309.65 v 489.7 H 439.27 Z" /></clipPath><clipPath
       id="clipPath9324"
       clipPathUnits="userSpaceOnUse"><path
         style="clip-rule:evenodd"
         id="path9322"
         d="m 439.27,73.584 h 108.02 v 66.264 H 439.27 Z" /></clipPath><clipPath
       id="clipPath9332"
       clipPathUnits="userSpaceOnUse"><path
         style="clip-rule:evenodd"
         id="path9330"
         d="m 439.27,73.584 h 108.02 v 66.264 H 439.27 Z" /></clipPath><clipPath
       id="clipPath9340"
       clipPathUnits="userSpaceOnUse"><path
         style="clip-rule:evenodd"
         id="path9338"
         d="m 547.3,73.584 h 201.62 v 66.264 H 547.3 Z" /></clipPath><clipPath
       id="clipPath9348"
       clipPathUnits="userSpaceOnUse"><path
         style="clip-rule:evenodd"
         id="path9346"
         d="m 547.3,73.584 h 201.62 v 66.264 H 547.3 Z" /></clipPath><clipPath
       id="clipPath9356"
       clipPathUnits="userSpaceOnUse"><path
         style="clip-rule:evenodd"
         id="path9354"
         d="m 547.3,73.584 h 201.62 v 66.264 H 547.3 Z" /></clipPath><clipPath
       id="clipPath9364"
       clipPathUnits="userSpaceOnUse"><path
         style="clip-rule:evenodd"
         id="path9362"
         d="m 547.3,73.584 h 201.62 v 66.264 H 547.3 Z" /></clipPath><clipPath
       id="clipPath9372"
       clipPathUnits="userSpaceOnUse"><path
         style="clip-rule:evenodd"
         id="path9370"
         d="m 439.27,61.104 h 309.65 v 489.7 H 439.27 Z" /></clipPath><clipPath
       id="clipPath9380"
       clipPathUnits="userSpaceOnUse"><path
         style="clip-rule:evenodd"
         id="path9378"
         d="m 43.2,35.904 h 309.65 v 25.2 H 43.2 Z" /></clipPath><clipPath
       id="clipPath9388"
       clipPathUnits="userSpaceOnUse"><path
         style="clip-rule:evenodd"
         id="path9386"
         d="m 43.2,35.904 h 309.65 v 25.2 H 43.2 Z" /></clipPath><clipPath
       id="clipPath9400"
       clipPathUnits="userSpaceOnUse"><path
         style="clip-rule:evenodd"
         id="path9398"
         d="m 43.2,35.904 h 309.65 v 25.2 H 43.2 Z" /></clipPath><clipPath
       id="clipPath9408"
       clipPathUnits="userSpaceOnUse"><path
         style="clip-rule:evenodd"
         id="path9406"
         d="m 352.85,35.904 h 43.224 v 25.2 H 352.85 Z" /></clipPath><clipPath
       id="clipPath9416"
       clipPathUnits="userSpaceOnUse"><path
         style="clip-rule:evenodd"
         id="path9414"
         d="m 352.85,35.904 h 43.224 v 25.2 H 352.85 Z" /></clipPath><clipPath
       id="clipPath9424"
       clipPathUnits="userSpaceOnUse"><path
         style="clip-rule:evenodd"
         id="path9422"
         d="m 396.07,35.904 h 43.2 v 25.2 h -43.2 z" /></clipPath><clipPath
       id="clipPath9432"
       clipPathUnits="userSpaceOnUse"><path
         style="clip-rule:evenodd"
         id="path9430"
         d="m 396.07,35.904 h 43.2 v 25.2 h -43.2 z" /></clipPath><clipPath
       id="clipPath9440"
       clipPathUnits="userSpaceOnUse"><path
         style="clip-rule:evenodd"
         id="path9438"
         d="m 439.27,35.904 h 309.65 v 25.2 H 439.27 Z" /></clipPath><clipPath
       id="clipPath9448"
       clipPathUnits="userSpaceOnUse"><path
         style="clip-rule:evenodd"
         id="path9446"
         d="m 439.27,35.904 h 309.65 v 25.2 H 439.27 Z" /></clipPath><clipPath
       id="clipPath9460"
       clipPathUnits="userSpaceOnUse"><path
         style="clip-rule:evenodd"
         id="path9458"
         d="m 439.27,35.904 h 309.65 v 25.2 H 439.27 Z" /></clipPath><clipPath
       id="clipPath9468"
       clipPathUnits="userSpaceOnUse"><path
         style="clip-rule:evenodd"
         id="path9466"
         d="M 1.1802e-5,0 H 792.00001 V 612 H 1.1802e-5 Z" /></clipPath><clipPath
       id="clipPath9476"
       clipPathUnits="userSpaceOnUse"><path
         style="clip-rule:evenodd"
         id="path9474"
         d="M -1.1444e-5,612 H 792 V 1.2207e-4 H -9.9182e-5" /></clipPath><clipPath
       id="clipPath9490"
       clipPathUnits="userSpaceOnUse"><path
         style="clip-rule:evenodd"
         id="path9488"
         d="M 0,612 H 792 V 6.1035e-5 H -7.629e-6" /></clipPath><clipPath
       id="clipPath9500"
       clipPathUnits="userSpaceOnUse"><path
         style="clip-rule:evenodd"
         id="path9498"
         d="M 0,612 H 792 V 6.1035e-5 H -7.629e-6" /></clipPath><clipPath
       id="clipPath9510"
       clipPathUnits="userSpaceOnUse"><path
         style="clip-rule:evenodd"
         id="path9508"
         d="M -4.9591e-5,612 H 792 V 1.2207e-4 H -7.2479e-5" /></clipPath><clipPath
       id="clipPath9520"
       clipPathUnits="userSpaceOnUse"><path
         style="clip-rule:evenodd"
         id="path9518"
         d="M 0,612 H 792 V 1.8311e-4 L -3.8147e-5,1.2207e-4" /></clipPath></defs><g
     transform="matrix(1.3333333,0,0,-1.3333333,0,256)"
     id="g8078"><path
       id="path9480"
       style="fill:#000000;fill-opacity:1;fill-rule:nonzero;stroke:none;stroke-width:2.28415942"
       d="m 122.79253,173.42931 6.85225,-2.68816 3.34799,-1.61289 3.19176,-1.7298 3.08016,-1.87001 2.96857,-2.01029 2.85696,-2.12715 2.70072,-2.24403 2.5668,-2.36092 2.45519,-2.45441 2.32129,-2.57129 2.16505,-2.66481 2.03111,-2.75827 1.89721,-2.82842 1.74096,-2.92194 1.58473,-3.0154 1.42846,-3.06218 1.29457,-3.13232 1.11599,-3.15567 0.95977,-3.24916 0.80352,-3.27255 0.62497,-3.34268 0.46872,-3.36605 0.26784,-3.38943 0.11163,-3.41281 -0.067,-3.43616 -0.24551,-3.43618 -0.44642,-3.459557 -0.62494,-3.436177 -0.80352,-3.436179 -1.0044,-3.43618 -1.20528,-3.412803 -1.36152,-3.342675 -1.56242,-3.249176 -1.69632,-3.155676 -1.85255,-3.015422 -1.98648,-2.92192 -2.14272,-2.781669 -2.25433,-2.688167 -2.38824,-2.547916 -2.47751,-2.40766 -2.63377,-2.337538 -2.72305,-2.150533 -2.83463,-2.057033 -2.9016,-1.893404 -3.0132,-1.776529 -3.08016,-1.636275 -3.16945,-1.496024 -3.2364,-1.35577 -3.30336,-1.192143 -3.34801,-1.051893 -3.4373,-0.911638 -3.45958,-0.724637 -3.50426,-0.584384 -3.52656,-0.444132 -3.58236,-0.257129 -3.59127,-0.116882 -3.62478,0.07012 -3.622541,0.233753 -3.638162,0.420759 -3.624771,0.561008 -3.642625,0.771386 -3.604684,0.935014 -3.606914,1.122018 -3.539954,1.309022 -3.421658,1.449273 -3.318987,1.589523 -3.20069,1.729779 -3.080161,1.870028 -2.9641,1.986907 -2.845802,2.150532 -2.709649,2.244037 -2.569032,2.337535 -2.452971,2.454414 -2.319049,2.57129 -2.16281,2.664791 -2.040049,2.781669 -1.890506,2.805044 -1.736497,2.945297 -1.580258,2.992045 -1.441872,3.062173 -1.290096,3.1323 -1.120466,3.17905 -0.961992,3.249175 -0.79236,3.27255 -0.636122,3.319304 -0.448632,3.366055 -0.292391,3.38942 -0.102677,3.4128 0.06919,3.43617 0.256678,3.43618 0.430777,3.45956 0.620497,3.43619 0.825841,3.43616 0.997703,3.43617 1.209746,3.43619 2.194058,5.09584 2.577961,4.88543 2.955171,4.60495 3.278808,4.3712 3.62254,4.09069 3.92609,3.81019 4.198395,3.48293 4.4707,3.17905 4.707289,2.87517 4.930493,2.50115 5.113514,2.15053 5.301004,1.79991 5.472866,1.40252 5.591165,1.00515 5.70946,0.60776 2.903822,0.14031 2.89268,0.0468 0.0378,-3.50631 -2.8614,-0.0233 h 0.0581 l -2.827941,-0.14031 h 0.08929 l -5.606786,-0.60778 0.113841,0.0234 -5.475101,-0.98175 0.118298,0.0234 -5.356803,-1.37915 0.113818,0.0234 -5.189403,-1.75316 0.109371,0.0468 -5.006379,-2.1038 0.109359,0.0467 -4.821123,-2.4544 0.109359,0.0702 -4.602388,-2.80504 0.09597,0.0701 -4.368026,-3.10892 0.102678,0.0702 -4.100187,-3.4128 0.09375,0.0935 -3.832347,-3.71669 0.08704,0.0935 -3.531025,-3.99718 0.08928,0.11681 -3.196226,-4.25432 0.07364,0.11681 -2.879283,-4.51144 0.07367,0.11681 -2.511002,-4.74519 0.0625,0.11681 -2.142721,-4.97895 0.04241,0.11682 -1.171802,-3.31929 0.0335,0.11681 -0.970921,-3.36605 0.02007,0.0936 -0.803521,-3.34268 0.02233,0.0935 -0.60264,-3.34267 0.01555,0.0935 -0.419616,-3.34267 0.009,0.0935 -0.249986,-3.36606 0.0046,0.11688 -0.06697,-3.34268 v 0.0935 l 0.100454,-3.31929 -0.0068,0.11688 0.283465,-3.29592 -0.009,0.0701 0.435242,-3.272557 -0.01555,0.116883 0.618265,-3.225803 -0.01786,0.07013 0.770041,-3.179049 -0.02454,0.0935 0.937443,-3.155673 -0.02678,0.07013 1.089215,-3.108922 -0.03573,0.0935 1.256617,-3.038798 -0.03794,0.07013 1.406162,-2.968671 -0.03572,0.07012 1.540082,-2.921921 -0.04018,0.0935 1.689625,-2.87517 -0.05134,0.0935 1.8414,-2.758295 -0.04686,0.07013 1.990947,-2.711543 -0.04911,0.07012 2.109241,-2.594665 -0.05803,0.07013 2.261019,-2.501163 -0.06025,0.04676 2.394936,-2.384287 -0.05803,0.04677 2.511001,-2.290786 -0.0625,0.04674 2.644922,-2.197284 -0.0625,0.04674 2.778841,-2.080408 -0.07141,0.04674 2.897138,-1.940156 -0.06696,0.04674 3.013203,-1.823278 -0.06697,0.04674 3.129266,-1.706401 -0.07141,0.02338 3.247561,-1.542774 -0.06919,0.02338 3.348004,-1.425898 -0.08035,0.04675 3.466297,-1.262269 -0.07141,0.02337 3.533259,-1.122019 -0.08035,0.02337 3.533257,-0.911639 -0.06919,0.02338 3.564509,-0.748012 h -0.08035 l 3.548883,-0.561008 -0.06919,0.02337 3.564506,-0.397382 h -0.07798 l 3.548874,-0.233752 h -0.06912 l 3.548898,-0.07013 h -0.0803 l 3.5154,0.116882 h -0.0713 l 3.4953,0.25713 h -0.067 l 3.4596,0.420756 -0.067,-0.02338 3.43728,0.584383 -0.067,-0.02337 3.39266,0.724637 -0.067,-0.02338 3.34799,0.888264 -0.0894,-0.02338 3.28104,1.028516 -0.067,-0.02338 3.23641,1.168768 -0.0668,-0.02338 3.16945,1.332395 -0.067,-0.04674 3.10248,1.472649 -0.067,-0.02338 3.0132,1.589524 -0.067,-0.04674 2.94624,1.753153 -0.067,-0.04676 2.85696,1.846655 -0.067,-0.04674 2.74535,2.01028 -0.0446,-0.04674 2.65608,2.12716 -0.0668,-0.07012 2.5668,2.26741 -0.067,-0.04677 2.43289,2.360914 -0.067,-0.07012 2.32128,2.501164 -0.0446,-0.07012 2.20968,2.61804 -0.067,-0.07012 2.07576,2.711544 -0.0446,-0.07013 1.94184,2.851794 -0.0446,-0.07013 1.80792,2.945297 -0.0446,-0.0935 1.65169,3.062174 -0.0446,-0.07012 1.51777,3.155673 -0.0446,-0.09351 1.33922,3.249177 -0.0446,-0.07012 1.18297,3.319302 -0.0223,-0.0935 0.95976,3.342678 -0.0223,-0.0935 0.7812,3.342678 -0.0223,-0.09351 0.60263,3.342677 v -0.0935 l 0.42408,3.366056 v -0.0935 l 0.2232,3.3193 v -0.0935 l 0.0669,3.36604 v -0.0935 l -0.0894,3.29593 v -0.0935 l -0.26784,3.29593 v -0.0935 l -0.44639,3.24918 0.0223,-0.0702 -0.62497,3.22582 0.0223,-0.0702 -0.7812,3.17904 0.0223,-0.0935 -0.93744,3.15567 0.0446,-0.0702 -1.09368,3.08555 0.0223,-0.0934 -1.24991,3.03879 0.0446,-0.0701 -1.40617,2.99205 0.0446,-0.0936 -1.56238,2.92194 0.0446,-0.0702 -1.67399,2.85179 0.0446,-0.0935 -1.85256,2.78166 0.067,-0.0701 -2.00879,2.66479 0.0446,-0.0468 -2.09809,2.59466 0.0446,-0.0702 -2.25434,2.50115 0.067,-0.0468 -2.38823,2.38429 0.0446,-0.0468 -2.52216,2.31414 0.067,-0.0466 -2.63377,2.17392 0.0668,-0.0468 -2.76768,2.08041 0.0446,-0.0468 -2.90161,1.96352 0.0894,-0.0468 -3.0132,1.8233 0.067,-0.0468 -3.14713,1.70639 0.0894,-0.0468 -3.25874,1.56616 0.11163,-0.0466 -6.8076,2.68815 z m -2.94625,-8.20474 c -3.4596,1.35576 -5.22289,5.39972 -3.92832,9.02289 1.29457,3.62316 5.15592,5.46984 8.61553,4.11406 3.45959,-1.35577 5.22288,-5.3997 3.92832,-9.02289 -1.29457,-3.62317 -5.1336,-5.46985 -8.61553,-4.11406 z" /><path
       id="path9482"
       style="fill:#000000;fill-opacity:1;fill-rule:nonzero;stroke:none;stroke-width:2.28415942"
       d="M 96.07322,175.81361 94.955,18.263656 98.303,18.240272 99.42122,175.79021 Z M 89.94862,20.647943 96.54418,6.5759722 103.34062,20.554442 Z" /><g
       transform="matrix(2.2320015,0,0,2.3375365,-118.777,-770.56145)"
       id="g9484"><g
         clip-path="url(#clipPath9490)"
         id="g9486"><path
           id="path9492"
           style="fill:#000000;fill-opacity:1;fill-rule:evenodd;stroke:none"
           d="m 67.779,360.18 v 0 l -1.446,-0.73 0.211,6.79 5.57,-3.89 -1.445,-0.72 v 0 z" /></g></g><g
       transform="matrix(2.2320015,0,0,2.3375365,-118.777,-770.56145)"
       id="g9494"><g
         clip-path="url(#clipPath9500)"
         id="g9496"><path
           id="path9502"
           style="fill:none;stroke:#000000;stroke-width:1;stroke-linecap:butt;stroke-linejoin:miter;stroke-miterlimit:10;stroke-dasharray:none;stroke-opacity:1"
           d="m 67.779,360.18 v 0 l -1.446,-0.73 0.211,6.79 5.57,-3.89 -1.445,-0.72 v 0 z" /></g></g></g></svg>