<?xml version="1.0" encoding="UTF-8" standalone="no"?>
<svg
   xmlns:dc="http://purl.org/dc/elements/1.1/"
   xmlns:cc="http://creativecommons.org/ns#"
   xmlns:rdf="http://www.w3.org/1999/02/22-rdf-syntax-ns#"
   xmlns:svg="http://www.w3.org/2000/svg"
   xmlns="http://www.w3.org/2000/svg"
   viewBox="0 0 256 256"
   height="256"
   width="256"
   xml:space="preserve"
   id="svg15988"
   version="1.1"><metadata
     id="metadata15994"><rdf:RDF><cc:Work
         rdf:about=""><dc:format>image/svg+xml</dc:format><dc:type
           rdf:resource="http://purl.org/dc/dcmitype/StillImage" /><dc:title></dc:title></cc:Work></rdf:RDF></metadata><defs
     id="defs15992"><clipPath
       id="clipPath16004"
       clipPathUnits="userSpaceOnUse"><path
         style="clip-rule:evenodd"
         id="path16002"
         d="m 43.2,61.104 h 309.65 v 489.7 H 43.2 Z" /></clipPath><clipPath
       id="clipPath16012"
       clipPathUnits="userSpaceOnUse"><path
         style="clip-rule:evenodd"
         id="path16010"
         d="m 43.2,61.104 h 309.65 v 489.7 H 43.2 Z" /></clipPath><clipPath
       id="clipPath16024"
       clipPathUnits="userSpaceOnUse"><path
         style="clip-rule:evenodd"
         id="path16022"
         d="m 43.2,61.104 h 309.65 v 489.7 H 43.2 Z" /></clipPath><clipPath
       id="clipPath16032"
       clipPathUnits="userSpaceOnUse"><path
         style="clip-rule:evenodd"
         id="path16030"
         d="M 43.2,437.98 H 151.22 V 529.9 H 43.2 Z" /></clipPath><clipPath
       id="clipPath16040"
       clipPathUnits="userSpaceOnUse"><path
         style="clip-rule:evenodd"
         id="path16038"
         d="M 43.2,437.98 H 151.22 V 529.9 H 43.2 Z" /></clipPath><clipPath
       id="clipPath16048"
       clipPathUnits="userSpaceOnUse"><path
         style="clip-rule:evenodd"
         id="path16046"
         d="M 43.2,437.98 H 151.22 V 529.9 H 43.2 Z" /></clipPath><clipPath
       id="clipPath16056"
       clipPathUnits="userSpaceOnUse"><path
         style="clip-rule:evenodd"
         id="path16054"
         d="M 43.2,437.98 H 151.22 V 529.9 H 43.2 Z" /></clipPath><clipPath
       id="clipPath16064"
       clipPathUnits="userSpaceOnUse"><path
         style="clip-rule:evenodd"
         id="path16062"
         d="M 151.22,437.98 H 352.84 V 529.9 H 151.22 Z" /></clipPath><clipPath
       id="clipPath16072"
       clipPathUnits="userSpaceOnUse"><path
         style="clip-rule:evenodd"
         id="path16070"
         d="M 151.22,437.98 H 352.84 V 529.9 H 151.22 Z" /></clipPath><clipPath
       id="clipPath16084"
       clipPathUnits="userSpaceOnUse"><path
         style="clip-rule:evenodd"
         id="path16082"
         d="M 151.22,437.98 H 352.84 V 529.9 H 151.22 Z" /></clipPath><clipPath
       id="clipPath16096"
       clipPathUnits="userSpaceOnUse"><path
         style="clip-rule:evenodd"
         id="path16094"
         d="M 151.22,437.98 H 352.84 V 529.9 H 151.22 Z" /></clipPath><clipPath
       id="clipPath16108"
       clipPathUnits="userSpaceOnUse"><path
         style="clip-rule:evenodd"
         id="path16106"
         d="M 151.22,437.98 H 352.84 V 529.9 H 151.22 Z" /></clipPath><clipPath
       id="clipPath16120"
       clipPathUnits="userSpaceOnUse"><path
         style="clip-rule:evenodd"
         id="path16118"
         d="M 151.22,437.98 H 352.84 V 529.9 H 151.22 Z" /></clipPath><clipPath
       id="clipPath16132"
       clipPathUnits="userSpaceOnUse"><path
         style="clip-rule:evenodd"
         id="path16130"
         d="M 151.22,437.98 H 352.84 V 529.9 H 151.22 Z" /></clipPath><clipPath
       id="clipPath16144"
       clipPathUnits="userSpaceOnUse"><path
         style="clip-rule:evenodd"
         id="path16142"
         d="M 151.22,437.98 H 352.84 V 529.9 H 151.22 Z" /></clipPath><clipPath
       id="clipPath16156"
       clipPathUnits="userSpaceOnUse"><path
         style="clip-rule:evenodd"
         id="path16154"
         d="M 151.22,437.98 H 352.84 V 529.9 H 151.22 Z" /></clipPath><clipPath
       id="clipPath16168"
       clipPathUnits="userSpaceOnUse"><path
         style="clip-rule:evenodd"
         id="path16166"
         d="M 151.22,437.98 H 352.84 V 529.9 H 151.22 Z" /></clipPath><clipPath
       id="clipPath16180"
       clipPathUnits="userSpaceOnUse"><path
         style="clip-rule:evenodd"
         id="path16178"
         d="M 151.22,437.98 H 352.84 V 529.9 H 151.22 Z" /></clipPath><clipPath
       id="clipPath16192"
       clipPathUnits="userSpaceOnUse"><path
         style="clip-rule:evenodd"
         id="path16190"
         d="M 151.22,437.98 H 352.84 V 529.9 H 151.22 Z" /></clipPath><clipPath
       id="clipPath16204"
       clipPathUnits="userSpaceOnUse"><path
         style="clip-rule:evenodd"
         id="path16202"
         d="M 151.22,437.98 H 352.84 V 529.9 H 151.22 Z" /></clipPath><clipPath
       id="clipPath16216"
       clipPathUnits="userSpaceOnUse"><path
         style="clip-rule:evenodd"
         id="path16214"
         d="M 151.22,437.98 H 352.84 V 529.9 H 151.22 Z" /></clipPath><clipPath
       id="clipPath16228"
       clipPathUnits="userSpaceOnUse"><path
         style="clip-rule:evenodd"
         id="path16226"
         d="M 151.22,437.98 H 352.84 V 529.9 H 151.22 Z" /></clipPath><clipPath
       id="clipPath16236"
       clipPathUnits="userSpaceOnUse"><path
         style="clip-rule:evenodd"
         id="path16234"
         d="M 151.22,437.98 H 352.84 V 529.9 H 151.22 Z" /></clipPath><clipPath
       id="clipPath16248"
       clipPathUnits="userSpaceOnUse"><path
         style="clip-rule:evenodd"
         id="path16246"
         d="M 151.22,437.98 H 352.84 V 529.9 H 151.22 Z" /></clipPath><clipPath
       id="clipPath16260"
       clipPathUnits="userSpaceOnUse"><path
         style="clip-rule:evenodd"
         id="path16258"
         d="M 151.22,437.98 H 352.84 V 529.9 H 151.22 Z" /></clipPath><clipPath
       id="clipPath16272"
       clipPathUnits="userSpaceOnUse"><path
         style="clip-rule:evenodd"
         id="path16270"
         d="M 151.22,437.98 H 352.84 V 529.9 H 151.22 Z" /></clipPath><clipPath
       id="clipPath16284"
       clipPathUnits="userSpaceOnUse"><path
         style="clip-rule:evenodd"
         id="path16282"
         d="M 151.22,437.98 H 352.84 V 529.9 H 151.22 Z" /></clipPath><clipPath
       id="clipPath16292"
       clipPathUnits="userSpaceOnUse"><path
         style="clip-rule:evenodd"
         id="path16290"
         d="M 151.22,437.98 H 352.84 V 529.9 H 151.22 Z" /></clipPath><clipPath
       id="clipPath16304"
       clipPathUnits="userSpaceOnUse"><path
         style="clip-rule:evenodd"
         id="path16302"
         d="M 151.22,437.98 H 352.84 V 529.9 H 151.22 Z" /></clipPath><clipPath
       id="clipPath16316"
       clipPathUnits="userSpaceOnUse"><path
         style="clip-rule:evenodd"
         id="path16314"
         d="M 151.22,437.98 H 352.84 V 529.9 H 151.22 Z" /></clipPath><clipPath
       id="clipPath16328"
       clipPathUnits="userSpaceOnUse"><path
         style="clip-rule:evenodd"
         id="path16326"
         d="M 151.22,437.98 H 352.84 V 529.9 H 151.22 Z" /></clipPath><clipPath
       id="clipPath16336"
       clipPathUnits="userSpaceOnUse"><path
         style="clip-rule:evenodd"
         id="path16334"
         d="m 43.2,61.104 h 309.65 v 489.7 H 43.2 Z" /></clipPath><clipPath
       id="clipPath16348"
       clipPathUnits="userSpaceOnUse"><path
         style="clip-rule:evenodd"
         id="path16346"
         d="m 43.2,61.104 h 309.65 v 489.7 H 43.2 Z" /></clipPath><clipPath
       id="clipPath16356"
       clipPathUnits="userSpaceOnUse"><path
         style="clip-rule:evenodd"
         id="path16354"
         d="m 43.2,318.43 h 108.02 v 74.64 H 43.2 Z" /></clipPath><clipPath
       id="clipPath16364"
       clipPathUnits="userSpaceOnUse"><path
         style="clip-rule:evenodd"
         id="path16362"
         d="m 43.2,318.43 h 108.02 v 74.64 H 43.2 Z" /></clipPath><clipPath
       id="clipPath16372"
       clipPathUnits="userSpaceOnUse"><path
         style="clip-rule:evenodd"
         id="path16370"
         d="m 43.2,318.43 h 108.02 v 74.64 H 43.2 Z" /></clipPath><clipPath
       id="clipPath16380"
       clipPathUnits="userSpaceOnUse"><path
         style="clip-rule:evenodd"
         id="path16378"
         d="m 151.22,318.43 h 201.62 v 74.64 H 151.22 Z" /></clipPath><clipPath
       id="clipPath16388"
       clipPathUnits="userSpaceOnUse"><path
         style="clip-rule:evenodd"
         id="path16386"
         d="m 151.22,318.43 h 201.62 v 74.64 H 151.22 Z" /></clipPath><clipPath
       id="clipPath16400"
       clipPathUnits="userSpaceOnUse"><path
         style="clip-rule:evenodd"
         id="path16398"
         d="m 151.22,318.43 h 201.62 v 74.64 H 151.22 Z" /></clipPath><clipPath
       id="clipPath16412"
       clipPathUnits="userSpaceOnUse"><path
         style="clip-rule:evenodd"
         id="path16410"
         d="m 151.22,318.43 h 201.62 v 74.64 H 151.22 Z" /></clipPath><clipPath
       id="clipPath16424"
       clipPathUnits="userSpaceOnUse"><path
         style="clip-rule:evenodd"
         id="path16422"
         d="m 151.22,318.43 h 201.62 v 74.64 H 151.22 Z" /></clipPath><clipPath
       id="clipPath16436"
       clipPathUnits="userSpaceOnUse"><path
         style="clip-rule:evenodd"
         id="path16434"
         d="m 151.22,318.43 h 201.62 v 74.64 H 151.22 Z" /></clipPath><clipPath
       id="clipPath16448"
       clipPathUnits="userSpaceOnUse"><path
         style="clip-rule:evenodd"
         id="path16446"
         d="m 151.22,318.43 h 201.62 v 74.64 H 151.22 Z" /></clipPath><clipPath
       id="clipPath16460"
       clipPathUnits="userSpaceOnUse"><path
         style="clip-rule:evenodd"
         id="path16458"
         d="m 151.22,318.43 h 201.62 v 74.64 H 151.22 Z" /></clipPath><clipPath
       id="clipPath16472"
       clipPathUnits="userSpaceOnUse"><path
         style="clip-rule:evenodd"
         id="path16470"
         d="m 151.22,318.43 h 201.62 v 74.64 H 151.22 Z" /></clipPath><clipPath
       id="clipPath16484"
       clipPathUnits="userSpaceOnUse"><path
         style="clip-rule:evenodd"
         id="path16482"
         d="m 151.22,318.43 h 201.62 v 74.64 H 151.22 Z" /></clipPath><clipPath
       id="clipPath16496"
       clipPathUnits="userSpaceOnUse"><path
         style="clip-rule:evenodd"
         id="path16494"
         d="m 151.22,318.43 h 201.62 v 74.64 H 151.22 Z" /></clipPath><clipPath
       id="clipPath16504"
       clipPathUnits="userSpaceOnUse"><path
         style="clip-rule:evenodd"
         id="path16502"
         d="m 151.22,318.43 h 201.62 v 74.64 H 151.22 Z" /></clipPath><clipPath
       id="clipPath16516"
       clipPathUnits="userSpaceOnUse"><path
         style="clip-rule:evenodd"
         id="path16514"
         d="m 151.22,318.43 h 201.62 v 74.64 H 151.22 Z" /></clipPath><clipPath
       id="clipPath16528"
       clipPathUnits="userSpaceOnUse"><path
         style="clip-rule:evenodd"
         id="path16526"
         d="m 151.22,318.43 h 201.62 v 74.64 H 151.22 Z" /></clipPath><clipPath
       id="clipPath16540"
       clipPathUnits="userSpaceOnUse"><path
         style="clip-rule:evenodd"
         id="path16538"
         d="m 151.22,318.43 h 201.62 v 74.64 H 151.22 Z" /></clipPath><clipPath
       id="clipPath16548"
       clipPathUnits="userSpaceOnUse"><path
         style="clip-rule:evenodd"
         id="path16546"
         d="m 151.22,318.43 h 201.62 v 74.64 H 151.22 Z" /></clipPath><clipPath
       id="clipPath16560"
       clipPathUnits="userSpaceOnUse"><path
         style="clip-rule:evenodd"
         id="path16558"
         d="m 151.22,318.43 h 201.62 v 74.64 H 151.22 Z" /></clipPath><clipPath
       id="clipPath16568"
       clipPathUnits="userSpaceOnUse"><path
         style="clip-rule:evenodd"
         id="path16566"
         d="m 43.2,61.104 h 309.65 v 489.7 H 43.2 Z" /></clipPath><clipPath
       id="clipPath16580"
       clipPathUnits="userSpaceOnUse"><path
         style="clip-rule:evenodd"
         id="path16578"
         d="m 43.2,61.104 h 309.65 v 489.7 H 43.2 Z" /></clipPath><clipPath
       id="clipPath16588"
       clipPathUnits="userSpaceOnUse"><path
         style="clip-rule:evenodd"
         id="path16586"
         d="m 43.2,61.104 h 309.65 v 489.7 H 43.2 Z" /></clipPath><clipPath
       id="clipPath16598"
       clipPathUnits="userSpaceOnUse"><path
         style="clip-rule:evenodd"
         id="path16596"
         d="m 43.2,191.57 h 108.02 v 77.88 H 43.2 Z" /></clipPath><clipPath
       id="clipPath16606"
       clipPathUnits="userSpaceOnUse"><path
         style="clip-rule:evenodd"
         id="path16604"
         d="m 43.2,191.57 h 108.02 v 77.88 H 43.2 Z" /></clipPath><clipPath
       id="clipPath16614"
       clipPathUnits="userSpaceOnUse"><path
         style="clip-rule:evenodd"
         id="path16612"
         d="m 151.22,191.57 h 201.62 v 77.88 H 151.22 Z" /></clipPath><clipPath
       id="clipPath16622"
       clipPathUnits="userSpaceOnUse"><path
         style="clip-rule:evenodd"
         id="path16620"
         d="m 151.22,191.57 h 201.62 v 77.88 H 151.22 Z" /></clipPath><clipPath
       id="clipPath16634"
       clipPathUnits="userSpaceOnUse"><path
         style="clip-rule:evenodd"
         id="path16632"
         d="m 151.22,191.57 h 201.62 v 77.88 H 151.22 Z" /></clipPath><clipPath
       id="clipPath16646"
       clipPathUnits="userSpaceOnUse"><path
         style="clip-rule:evenodd"
         id="path16644"
         d="m 151.22,191.57 h 201.62 v 77.88 H 151.22 Z" /></clipPath><clipPath
       id="clipPath16658"
       clipPathUnits="userSpaceOnUse"><path
         style="clip-rule:evenodd"
         id="path16656"
         d="m 151.22,191.57 h 201.62 v 77.88 H 151.22 Z" /></clipPath><clipPath
       id="clipPath16670"
       clipPathUnits="userSpaceOnUse"><path
         style="clip-rule:evenodd"
         id="path16668"
         d="m 151.22,191.57 h 201.62 v 77.88 H 151.22 Z" /></clipPath><clipPath
       id="clipPath16682"
       clipPathUnits="userSpaceOnUse"><path
         style="clip-rule:evenodd"
         id="path16680"
         d="m 151.22,191.57 h 201.62 v 77.88 H 151.22 Z" /></clipPath><clipPath
       id="clipPath16694"
       clipPathUnits="userSpaceOnUse"><path
         style="clip-rule:evenodd"
         id="path16692"
         d="m 151.22,191.57 h 201.62 v 77.88 H 151.22 Z" /></clipPath><clipPath
       id="clipPath16706"
       clipPathUnits="userSpaceOnUse"><path
         style="clip-rule:evenodd"
         id="path16704"
         d="m 151.22,191.57 h 201.62 v 77.88 H 151.22 Z" /></clipPath><clipPath
       id="clipPath16718"
       clipPathUnits="userSpaceOnUse"><path
         style="clip-rule:evenodd"
         id="path16716"
         d="m 151.22,191.57 h 201.62 v 77.88 H 151.22 Z" /></clipPath><clipPath
       id="clipPath16730"
       clipPathUnits="userSpaceOnUse"><path
         style="clip-rule:evenodd"
         id="path16728"
         d="m 151.22,191.57 h 201.62 v 77.88 H 151.22 Z" /></clipPath><clipPath
       id="clipPath16738"
       clipPathUnits="userSpaceOnUse"><path
         style="clip-rule:evenodd"
         id="path16736"
         d="m 151.22,191.57 h 201.62 v 77.88 H 151.22 Z" /></clipPath><clipPath
       id="clipPath16750"
       clipPathUnits="userSpaceOnUse"><path
         style="clip-rule:evenodd"
         id="path16748"
         d="m 151.22,191.57 h 201.62 v 77.88 H 151.22 Z" /></clipPath><clipPath
       id="clipPath16758"
       clipPathUnits="userSpaceOnUse"><path
         style="clip-rule:evenodd"
         id="path16756"
         d="m 151.22,191.57 h 201.62 v 77.88 H 151.22 Z" /></clipPath><clipPath
       id="clipPath16770"
       clipPathUnits="userSpaceOnUse"><path
         style="clip-rule:evenodd"
         id="path16768"
         d="m 151.22,191.57 h 201.62 v 77.88 H 151.22 Z" /></clipPath><clipPath
       id="clipPath16782"
       clipPathUnits="userSpaceOnUse"><path
         style="clip-rule:evenodd"
         id="path16780"
         d="m 151.22,191.57 h 201.62 v 77.88 H 151.22 Z" /></clipPath><clipPath
       id="clipPath16790"
       clipPathUnits="userSpaceOnUse"><path
         style="clip-rule:evenodd"
         id="path16788"
         d="m 43.2,61.104 h 309.65 v 489.7 H 43.2 Z" /></clipPath><clipPath
       id="clipPath16802"
       clipPathUnits="userSpaceOnUse"><path
         style="clip-rule:evenodd"
         id="path16800"
         d="m 43.2,61.104 h 309.65 v 489.7 H 43.2 Z" /></clipPath><clipPath
       id="clipPath16810"
       clipPathUnits="userSpaceOnUse"><path
         style="clip-rule:evenodd"
         id="path16808"
         d="m 43.2,67.824 h 108.02 v 74.784 H 43.2 Z" /></clipPath><clipPath
       id="clipPath16818"
       clipPathUnits="userSpaceOnUse"><path
         style="clip-rule:evenodd"
         id="path16816"
         d="m 43.2,67.824 h 108.02 v 74.784 H 43.2 Z" /></clipPath><clipPath
       id="clipPath16826"
       clipPathUnits="userSpaceOnUse"><path
         style="clip-rule:evenodd"
         id="path16824"
         d="m 43.2,67.824 h 108.02 v 74.784 H 43.2 Z" /></clipPath><clipPath
       id="clipPath16834"
       clipPathUnits="userSpaceOnUse"><path
         style="clip-rule:evenodd"
         id="path16832"
         d="m 151.22,67.824 h 201.62 v 74.784 H 151.22 Z" /></clipPath><clipPath
       id="clipPath16842"
       clipPathUnits="userSpaceOnUse"><path
         style="clip-rule:evenodd"
         id="path16840"
         d="m 151.22,67.824 h 201.62 v 74.784 H 151.22 Z" /></clipPath><clipPath
       id="clipPath16854"
       clipPathUnits="userSpaceOnUse"><path
         style="clip-rule:evenodd"
         id="path16852"
         d="m 151.22,67.824 h 201.62 v 74.784 H 151.22 Z" /></clipPath><clipPath
       id="clipPath16866"
       clipPathUnits="userSpaceOnUse"><path
         style="clip-rule:evenodd"
         id="path16864"
         d="m 151.22,67.824 h 201.62 v 74.784 H 151.22 Z" /></clipPath><clipPath
       id="clipPath16878"
       clipPathUnits="userSpaceOnUse"><path
         style="clip-rule:evenodd"
         id="path16876"
         d="m 151.22,67.824 h 201.62 v 74.784 H 151.22 Z" /></clipPath><clipPath
       id="clipPath16890"
       clipPathUnits="userSpaceOnUse"><path
         style="clip-rule:evenodd"
         id="path16888"
         d="m 151.22,67.824 h 201.62 v 74.784 H 151.22 Z" /></clipPath><clipPath
       id="clipPath16902"
       clipPathUnits="userSpaceOnUse"><path
         style="clip-rule:evenodd"
         id="path16900"
         d="m 151.22,67.824 h 201.62 v 74.784 H 151.22 Z" /></clipPath><clipPath
       id="clipPath16910"
       clipPathUnits="userSpaceOnUse"><path
         style="clip-rule:evenodd"
         id="path16908"
         d="m 151.22,67.824 h 201.62 v 74.784 H 151.22 Z" /></clipPath><clipPath
       id="clipPath16922"
       clipPathUnits="userSpaceOnUse"><path
         style="clip-rule:evenodd"
         id="path16920"
         d="m 151.22,67.824 h 201.62 v 74.784 H 151.22 Z" /></clipPath><clipPath
       id="clipPath16934"
       clipPathUnits="userSpaceOnUse"><path
         style="clip-rule:evenodd"
         id="path16932"
         d="m 151.22,67.824 h 201.62 v 74.784 H 151.22 Z" /></clipPath><clipPath
       id="clipPath16946"
       clipPathUnits="userSpaceOnUse"><path
         style="clip-rule:evenodd"
         id="path16944"
         d="m 151.22,67.824 h 201.62 v 74.784 H 151.22 Z" /></clipPath><clipPath
       id="clipPath16954"
       clipPathUnits="userSpaceOnUse"><path
         style="clip-rule:evenodd"
         id="path16952"
         d="m 151.22,67.824 h 201.62 v 74.784 H 151.22 Z" /></clipPath><clipPath
       id="clipPath16966"
       clipPathUnits="userSpaceOnUse"><path
         style="clip-rule:evenodd"
         id="path16964"
         d="m 151.22,67.824 h 201.62 v 74.784 H 151.22 Z" /></clipPath><clipPath
       id="clipPath16974"
       clipPathUnits="userSpaceOnUse"><path
         style="clip-rule:evenodd"
         id="path16972"
         d="m 43.2,61.104 h 309.65 v 489.7 H 43.2 Z" /></clipPath><clipPath
       id="clipPath16982"
       clipPathUnits="userSpaceOnUse"><path
         style="clip-rule:evenodd"
         id="path16980"
         d="m 352.85,61.104 h 43.224 v 489.7 H 352.85 Z" /></clipPath><clipPath
       id="clipPath16990"
       clipPathUnits="userSpaceOnUse"><path
         style="clip-rule:evenodd"
         id="path16988"
         d="m 352.85,61.104 h 43.224 v 489.7 H 352.85 Z" /></clipPath><clipPath
       id="clipPath16998"
       clipPathUnits="userSpaceOnUse"><path
         style="clip-rule:evenodd"
         id="path16996"
         d="m 396.07,61.104 h 43.2 v 489.7 h -43.2 z" /></clipPath><clipPath
       id="clipPath17006"
       clipPathUnits="userSpaceOnUse"><path
         style="clip-rule:evenodd"
         id="path17004"
         d="m 396.07,61.104 h 43.2 v 489.7 h -43.2 z" /></clipPath><clipPath
       id="clipPath17014"
       clipPathUnits="userSpaceOnUse"><path
         style="clip-rule:evenodd"
         id="path17012"
         d="m 439.27,61.104 h 309.65 v 489.7 H 439.27 Z" /></clipPath><clipPath
       id="clipPath17022"
       clipPathUnits="userSpaceOnUse"><path
         style="clip-rule:evenodd"
         id="path17020"
         d="m 439.27,61.104 h 309.65 v 489.7 H 439.27 Z" /></clipPath><clipPath
       id="clipPath17034"
       clipPathUnits="userSpaceOnUse"><path
         style="clip-rule:evenodd"
         id="path17032"
         d="m 439.27,61.104 h 309.65 v 489.7 H 439.27 Z" /></clipPath><clipPath
       id="clipPath17042"
       clipPathUnits="userSpaceOnUse"><path
         style="clip-rule:evenodd"
         id="path17040"
         d="m 439.27,463.3 h 108.02 v 66.6 H 439.27 Z" /></clipPath><clipPath
       id="clipPath17050"
       clipPathUnits="userSpaceOnUse"><path
         style="clip-rule:evenodd"
         id="path17048"
         d="m 439.27,463.3 h 108.02 v 66.6 H 439.27 Z" /></clipPath><clipPath
       id="clipPath17058"
       clipPathUnits="userSpaceOnUse"><path
         style="clip-rule:evenodd"
         id="path17056"
         d="m 439.27,463.3 h 108.02 v 66.6 H 439.27 Z" /></clipPath><clipPath
       id="clipPath17066"
       clipPathUnits="userSpaceOnUse"><path
         style="clip-rule:evenodd"
         id="path17064"
         d="m 439.27,463.3 h 108.02 v 66.6 H 439.27 Z" /></clipPath><clipPath
       id="clipPath17074"
       clipPathUnits="userSpaceOnUse"><path
         style="clip-rule:evenodd"
         id="path17072"
         d="m 547.3,463.3 h 201.62 v 66.6 H 547.3 Z" /></clipPath><clipPath
       id="clipPath17082"
       clipPathUnits="userSpaceOnUse"><path
         style="clip-rule:evenodd"
         id="path17080"
         d="m 547.3,463.3 h 201.62 v 66.6 H 547.3 Z" /></clipPath><clipPath
       id="clipPath17094"
       clipPathUnits="userSpaceOnUse"><path
         style="clip-rule:evenodd"
         id="path17092"
         d="m 547.3,463.3 h 201.62 v 66.6 H 547.3 Z" /></clipPath><clipPath
       id="clipPath17106"
       clipPathUnits="userSpaceOnUse"><path
         style="clip-rule:evenodd"
         id="path17104"
         d="m 547.3,463.3 h 201.62 v 66.6 H 547.3 Z" /></clipPath><clipPath
       id="clipPath17118"
       clipPathUnits="userSpaceOnUse"><path
         style="clip-rule:evenodd"
         id="path17116"
         d="m 547.3,463.3 h 201.62 v 66.6 H 547.3 Z" /></clipPath><clipPath
       id="clipPath17130"
       clipPathUnits="userSpaceOnUse"><path
         style="clip-rule:evenodd"
         id="path17128"
         d="m 547.3,463.3 h 201.62 v 66.6 H 547.3 Z" /></clipPath><clipPath
       id="clipPath17142"
       clipPathUnits="userSpaceOnUse"><path
         style="clip-rule:evenodd"
         id="path17140"
         d="m 547.3,463.3 h 201.62 v 66.6 H 547.3 Z" /></clipPath><clipPath
       id="clipPath17154"
       clipPathUnits="userSpaceOnUse"><path
         style="clip-rule:evenodd"
         id="path17152"
         d="m 547.3,463.3 h 201.62 v 66.6 H 547.3 Z" /></clipPath><clipPath
       id="clipPath17166"
       clipPathUnits="userSpaceOnUse"><path
         style="clip-rule:evenodd"
         id="path17164"
         d="m 547.3,463.3 h 201.62 v 66.6 H 547.3 Z" /></clipPath><clipPath
       id="clipPath17174"
       clipPathUnits="userSpaceOnUse"><path
         style="clip-rule:evenodd"
         id="path17172"
         d="m 547.3,463.3 h 201.62 v 66.6 H 547.3 Z" /></clipPath><clipPath
       id="clipPath17186"
       clipPathUnits="userSpaceOnUse"><path
         style="clip-rule:evenodd"
         id="path17184"
         d="m 547.3,463.3 h 201.62 v 66.6 H 547.3 Z" /></clipPath><clipPath
       id="clipPath17194"
       clipPathUnits="userSpaceOnUse"><path
         style="clip-rule:evenodd"
         id="path17192"
         d="m 547.3,463.3 h 201.62 v 66.6 H 547.3 Z" /></clipPath><clipPath
       id="clipPath17206"
       clipPathUnits="userSpaceOnUse"><path
         style="clip-rule:evenodd"
         id="path17204"
         d="m 547.3,463.3 h 201.62 v 66.6 H 547.3 Z" /></clipPath><clipPath
       id="clipPath17214"
       clipPathUnits="userSpaceOnUse"><path
         style="clip-rule:evenodd"
         id="path17212"
         d="m 439.27,61.104 h 309.65 v 489.7 H 439.27 Z" /></clipPath><clipPath
       id="clipPath17226"
       clipPathUnits="userSpaceOnUse"><path
         style="clip-rule:evenodd"
         id="path17224"
         d="m 439.27,61.104 h 309.65 v 489.7 H 439.27 Z" /></clipPath><clipPath
       id="clipPath17234"
       clipPathUnits="userSpaceOnUse"><path
         style="clip-rule:evenodd"
         id="path17232"
         d="m 439.27,321.79 h 108.02 v 96.624 H 439.27 Z" /></clipPath><clipPath
       id="clipPath17242"
       clipPathUnits="userSpaceOnUse"><path
         style="clip-rule:evenodd"
         id="path17240"
         d="m 439.27,321.79 h 108.02 v 96.624 H 439.27 Z" /></clipPath><clipPath
       id="clipPath17250"
       clipPathUnits="userSpaceOnUse"><path
         style="clip-rule:evenodd"
         id="path17248"
         d="m 439.27,321.79 h 108.02 v 96.624 H 439.27 Z" /></clipPath><clipPath
       id="clipPath17258"
       clipPathUnits="userSpaceOnUse"><path
         style="clip-rule:evenodd"
         id="path17256"
         d="m 547.3,321.79 h 201.62 v 96.624 H 547.3 Z" /></clipPath><clipPath
       id="clipPath17266"
       clipPathUnits="userSpaceOnUse"><path
         style="clip-rule:evenodd"
         id="path17264"
         d="m 547.3,321.79 h 201.62 v 96.624 H 547.3 Z" /></clipPath><clipPath
       id="clipPath17278"
       clipPathUnits="userSpaceOnUse"><path
         style="clip-rule:evenodd"
         id="path17276"
         d="m 547.3,321.79 h 201.62 v 96.624 H 547.3 Z" /></clipPath><clipPath
       id="clipPath17290"
       clipPathUnits="userSpaceOnUse"><path
         style="clip-rule:evenodd"
         id="path17288"
         d="m 547.3,321.79 h 201.62 v 96.624 H 547.3 Z" /></clipPath><clipPath
       id="clipPath17302"
       clipPathUnits="userSpaceOnUse"><path
         style="clip-rule:evenodd"
         id="path17300"
         d="m 547.3,321.79 h 201.62 v 96.624 H 547.3 Z" /></clipPath><clipPath
       id="clipPath17314"
       clipPathUnits="userSpaceOnUse"><path
         style="clip-rule:evenodd"
         id="path17312"
         d="m 547.3,321.79 h 201.62 v 96.624 H 547.3 Z" /></clipPath><clipPath
       id="clipPath17326"
       clipPathUnits="userSpaceOnUse"><path
         style="clip-rule:evenodd"
         id="path17324"
         d="m 547.3,321.79 h 201.62 v 96.624 H 547.3 Z" /></clipPath><clipPath
       id="clipPath17338"
       clipPathUnits="userSpaceOnUse"><path
         style="clip-rule:evenodd"
         id="path17336"
         d="m 547.3,321.79 h 201.62 v 96.624 H 547.3 Z" /></clipPath><clipPath
       id="clipPath17350"
       clipPathUnits="userSpaceOnUse"><path
         style="clip-rule:evenodd"
         id="path17348"
         d="m 547.3,321.79 h 201.62 v 96.624 H 547.3 Z" /></clipPath><clipPath
       id="clipPath17362"
       clipPathUnits="userSpaceOnUse"><path
         style="clip-rule:evenodd"
         id="path17360"
         d="m 547.3,321.79 h 201.62 v 96.624 H 547.3 Z" /></clipPath><clipPath
       id="clipPath17374"
       clipPathUnits="userSpaceOnUse"><path
         style="clip-rule:evenodd"
         id="path17372"
         d="m 547.3,321.79 h 201.62 v 96.624 H 547.3 Z" /></clipPath><clipPath
       id="clipPath17382"
       clipPathUnits="userSpaceOnUse"><path
         style="clip-rule:evenodd"
         id="path17380"
         d="m 547.3,321.79 h 201.62 v 96.624 H 547.3 Z" /></clipPath><clipPath
       id="clipPath17394"
       clipPathUnits="userSpaceOnUse"><path
         style="clip-rule:evenodd"
         id="path17392"
         d="m 547.3,321.79 h 201.62 v 96.624 H 547.3 Z" /></clipPath><clipPath
       id="clipPath17402"
       clipPathUnits="userSpaceOnUse"><path
         style="clip-rule:evenodd"
         id="path17400"
         d="m 547.3,321.79 h 201.62 v 96.624 H 547.3 Z" /></clipPath><clipPath
       id="clipPath17414"
       clipPathUnits="userSpaceOnUse"><path
         style="clip-rule:evenodd"
         id="path17412"
         d="m 547.3,321.79 h 201.62 v 96.624 H 547.3 Z" /></clipPath><clipPath
       id="clipPath17426"
       clipPathUnits="userSpaceOnUse"><path
         style="clip-rule:evenodd"
         id="path17424"
         d="m 547.3,321.79 h 201.62 v 96.624 H 547.3 Z" /></clipPath><clipPath
       id="clipPath17438"
       clipPathUnits="userSpaceOnUse"><path
         style="clip-rule:evenodd"
         id="path17436"
         d="m 547.3,321.79 h 201.62 v 96.624 H 547.3 Z" /></clipPath><clipPath
       id="clipPath17450"
       clipPathUnits="userSpaceOnUse"><path
         style="clip-rule:evenodd"
         id="path17448"
         d="m 547.3,321.79 h 201.62 v 96.624 H 547.3 Z" /></clipPath><clipPath
       id="clipPath17458"
       clipPathUnits="userSpaceOnUse"><path
         style="clip-rule:evenodd"
         id="path17456"
         d="m 439.27,61.104 h 309.65 v 489.7 H 439.27 Z" /></clipPath><clipPath
       id="clipPath17470"
       clipPathUnits="userSpaceOnUse"><path
         style="clip-rule:evenodd"
         id="path17468"
         d="m 439.27,61.104 h 309.65 v 489.7 H 439.27 Z" /></clipPath><clipPath
       id="clipPath17482"
       clipPathUnits="userSpaceOnUse"><path
         style="clip-rule:evenodd"
         id="path17480"
         d="m 439.27,61.104 h 309.65 v 489.7 H 439.27 Z" /></clipPath><clipPath
       id="clipPath17494"
       clipPathUnits="userSpaceOnUse"><path
         style="clip-rule:evenodd"
         id="path17492"
         d="m 439.27,61.104 h 309.65 v 489.7 H 439.27 Z" /></clipPath><clipPath
       id="clipPath17502"
       clipPathUnits="userSpaceOnUse"><path
         style="clip-rule:evenodd"
         id="path17500"
         d="m 439.27,194.81 h 108.02 v 78.024 H 439.27 Z" /></clipPath><clipPath
       id="clipPath17510"
       clipPathUnits="userSpaceOnUse"><path
         style="clip-rule:evenodd"
         id="path17508"
         d="m 439.27,194.81 h 108.02 v 78.024 H 439.27 Z" /></clipPath><clipPath
       id="clipPath17518"
       clipPathUnits="userSpaceOnUse"><path
         style="clip-rule:evenodd"
         id="path17516"
         d="m 439.27,194.81 h 108.02 v 78.024 H 439.27 Z" /></clipPath><clipPath
       id="clipPath17526"
       clipPathUnits="userSpaceOnUse"><path
         style="clip-rule:evenodd"
         id="path17524"
         d="m 547.3,194.81 h 201.62 v 78.024 H 547.3 Z" /></clipPath><clipPath
       id="clipPath17534"
       clipPathUnits="userSpaceOnUse"><path
         style="clip-rule:evenodd"
         id="path17532"
         d="m 547.3,194.81 h 201.62 v 78.024 H 547.3 Z" /></clipPath><clipPath
       id="clipPath17546"
       clipPathUnits="userSpaceOnUse"><path
         style="clip-rule:evenodd"
         id="path17544"
         d="m 547.3,194.81 h 201.62 v 78.024 H 547.3 Z" /></clipPath><clipPath
       id="clipPath17558"
       clipPathUnits="userSpaceOnUse"><path
         style="clip-rule:evenodd"
         id="path17556"
         d="m 547.3,194.81 h 201.62 v 78.024 H 547.3 Z" /></clipPath><clipPath
       id="clipPath17570"
       clipPathUnits="userSpaceOnUse"><path
         style="clip-rule:evenodd"
         id="path17568"
         d="m 547.3,194.81 h 201.62 v 78.024 H 547.3 Z" /></clipPath><clipPath
       id="clipPath17582"
       clipPathUnits="userSpaceOnUse"><path
         style="clip-rule:evenodd"
         id="path17580"
         d="m 547.3,194.81 h 201.62 v 78.024 H 547.3 Z" /></clipPath><clipPath
       id="clipPath17594"
       clipPathUnits="userSpaceOnUse"><path
         style="clip-rule:evenodd"
         id="path17592"
         d="m 547.3,194.81 h 201.62 v 78.024 H 547.3 Z" /></clipPath><clipPath
       id="clipPath17602"
       clipPathUnits="userSpaceOnUse"><path
         style="clip-rule:evenodd"
         id="path17600"
         d="m 547.3,194.81 h 201.62 v 78.024 H 547.3 Z" /></clipPath><clipPath
       id="clipPath17614"
       clipPathUnits="userSpaceOnUse"><path
         style="clip-rule:evenodd"
         id="path17612"
         d="m 547.3,194.81 h 201.62 v 78.024 H 547.3 Z" /></clipPath><clipPath
       id="clipPath17622"
       clipPathUnits="userSpaceOnUse"><path
         style="clip-rule:evenodd"
         id="path17620"
         d="m 547.3,194.81 h 201.62 v 78.024 H 547.3 Z" /></clipPath><clipPath
       id="clipPath17634"
       clipPathUnits="userSpaceOnUse"><path
         style="clip-rule:evenodd"
         id="path17632"
         d="m 547.3,194.81 h 201.62 v 78.024 H 547.3 Z" /></clipPath><clipPath
       id="clipPath17646"
       clipPathUnits="userSpaceOnUse"><path
         style="clip-rule:evenodd"
         id="path17644"
         d="m 547.3,194.81 h 201.62 v 78.024 H 547.3 Z" /></clipPath><clipPath
       id="clipPath17654"
       clipPathUnits="userSpaceOnUse"><path
         style="clip-rule:evenodd"
         id="path17652"
         d="m 439.27,61.104 h 309.65 v 489.7 H 439.27 Z" /></clipPath><clipPath
       id="clipPath17666"
       clipPathUnits="userSpaceOnUse"><path
         style="clip-rule:evenodd"
         id="path17664"
         d="m 439.27,61.104 h 309.65 v 489.7 H 439.27 Z" /></clipPath><clipPath
       id="clipPath17678"
       clipPathUnits="userSpaceOnUse"><path
         style="clip-rule:evenodd"
         id="path17676"
         d="m 439.27,61.104 h 309.65 v 489.7 H 439.27 Z" /></clipPath><clipPath
       id="clipPath17686"
       clipPathUnits="userSpaceOnUse"><path
         style="clip-rule:evenodd"
         id="path17684"
         d="m 439.27,74.064 h 108.02 v 71.784 H 439.27 Z" /></clipPath><clipPath
       id="clipPath17694"
       clipPathUnits="userSpaceOnUse"><path
         style="clip-rule:evenodd"
         id="path17692"
         d="m 439.27,74.064 h 108.02 v 71.784 H 439.27 Z" /></clipPath><clipPath
       id="clipPath17702"
       clipPathUnits="userSpaceOnUse"><path
         style="clip-rule:evenodd"
         id="path17700"
         d="m 439.27,74.064 h 108.02 v 71.784 H 439.27 Z" /></clipPath><clipPath
       id="clipPath17710"
       clipPathUnits="userSpaceOnUse"><path
         style="clip-rule:evenodd"
         id="path17708"
         d="m 547.3,74.064 h 201.62 v 71.784 H 547.3 Z" /></clipPath><clipPath
       id="clipPath17718"
       clipPathUnits="userSpaceOnUse"><path
         style="clip-rule:evenodd"
         id="path17716"
         d="m 547.3,74.064 h 201.62 v 71.784 H 547.3 Z" /></clipPath><clipPath
       id="clipPath17730"
       clipPathUnits="userSpaceOnUse"><path
         style="clip-rule:evenodd"
         id="path17728"
         d="m 547.3,74.064 h 201.62 v 71.784 H 547.3 Z" /></clipPath><clipPath
       id="clipPath17742"
       clipPathUnits="userSpaceOnUse"><path
         style="clip-rule:evenodd"
         id="path17740"
         d="m 547.3,74.064 h 201.62 v 71.784 H 547.3 Z" /></clipPath><clipPath
       id="clipPath17754"
       clipPathUnits="userSpaceOnUse"><path
         style="clip-rule:evenodd"
         id="path17752"
         d="m 547.3,74.064 h 201.62 v 71.784 H 547.3 Z" /></clipPath><clipPath
       id="clipPath17766"
       clipPathUnits="userSpaceOnUse"><path
         style="clip-rule:evenodd"
         id="path17764"
         d="m 547.3,74.064 h 201.62 v 71.784 H 547.3 Z" /></clipPath><clipPath
       id="clipPath17778"
       clipPathUnits="userSpaceOnUse"><path
         style="clip-rule:evenodd"
         id="path17776"
         d="m 547.3,74.064 h 201.62 v 71.784 H 547.3 Z" /></clipPath><clipPath
       id="clipPath17790"
       clipPathUnits="userSpaceOnUse"><path
         style="clip-rule:evenodd"
         id="path17788"
         d="m 547.3,74.064 h 201.62 v 71.784 H 547.3 Z" /></clipPath><clipPath
       id="clipPath17802"
       clipPathUnits="userSpaceOnUse"><path
         style="clip-rule:evenodd"
         id="path17800"
         d="m 547.3,74.064 h 201.62 v 71.784 H 547.3 Z" /></clipPath><clipPath
       id="clipPath17814"
       clipPathUnits="userSpaceOnUse"><path
         style="clip-rule:evenodd"
         id="path17812"
         d="m 547.3,74.064 h 201.62 v 71.784 H 547.3 Z" /></clipPath><clipPath
       id="clipPath17826"
       clipPathUnits="userSpaceOnUse"><path
         style="clip-rule:evenodd"
         id="path17824"
         d="m 547.3,74.064 h 201.62 v 71.784 H 547.3 Z" /></clipPath><clipPath
       id="clipPath17838"
       clipPathUnits="userSpaceOnUse"><path
         style="clip-rule:evenodd"
         id="path17836"
         d="m 547.3,74.064 h 201.62 v 71.784 H 547.3 Z" /></clipPath><clipPath
       id="clipPath17850"
       clipPathUnits="userSpaceOnUse"><path
         style="clip-rule:evenodd"
         id="path17848"
         d="m 547.3,74.064 h 201.62 v 71.784 H 547.3 Z" /></clipPath><clipPath
       id="clipPath17862"
       clipPathUnits="userSpaceOnUse"><path
         style="clip-rule:evenodd"
         id="path17860"
         d="m 547.3,74.064 h 201.62 v 71.784 H 547.3 Z" /></clipPath><clipPath
       id="clipPath17874"
       clipPathUnits="userSpaceOnUse"><path
         style="clip-rule:evenodd"
         id="path17872"
         d="m 547.3,74.064 h 201.62 v 71.784 H 547.3 Z" /></clipPath><clipPath
       id="clipPath17882"
       clipPathUnits="userSpaceOnUse"><path
         style="clip-rule:evenodd"
         id="path17880"
         d="m 547.3,74.064 h 201.62 v 71.784 H 547.3 Z" /></clipPath><clipPath
       id="clipPath17894"
       clipPathUnits="userSpaceOnUse"><path
         style="clip-rule:evenodd"
         id="path17892"
         d="m 547.3,74.064 h 201.62 v 71.784 H 547.3 Z" /></clipPath><clipPath
       id="clipPath17902"
       clipPathUnits="userSpaceOnUse"><path
         style="clip-rule:evenodd"
         id="path17900"
         d="m 547.3,74.064 h 201.62 v 71.784 H 547.3 Z" /></clipPath><clipPath
       id="clipPath17914"
       clipPathUnits="userSpaceOnUse"><path
         style="clip-rule:evenodd"
         id="path17912"
         d="m 547.3,74.064 h 201.62 v 71.784 H 547.3 Z" /></clipPath><clipPath
       id="clipPath17922"
       clipPathUnits="userSpaceOnUse"><path
         style="clip-rule:evenodd"
         id="path17920"
         d="m 439.27,61.104 h 309.65 v 489.7 H 439.27 Z" /></clipPath><clipPath
       id="clipPath17930"
       clipPathUnits="userSpaceOnUse"><path
         style="clip-rule:evenodd"
         id="path17928"
         d="m 43.2,35.904 h 309.65 v 25.2 H 43.2 Z" /></clipPath><clipPath
       id="clipPath17938"
       clipPathUnits="userSpaceOnUse"><path
         style="clip-rule:evenodd"
         id="path17936"
         d="m 43.2,35.904 h 309.65 v 25.2 H 43.2 Z" /></clipPath><clipPath
       id="clipPath17950"
       clipPathUnits="userSpaceOnUse"><path
         style="clip-rule:evenodd"
         id="path17948"
         d="m 43.2,35.904 h 309.65 v 25.2 H 43.2 Z" /></clipPath><clipPath
       id="clipPath17958"
       clipPathUnits="userSpaceOnUse"><path
         style="clip-rule:evenodd"
         id="path17956"
         d="m 352.85,35.904 h 43.224 v 25.2 H 352.85 Z" /></clipPath><clipPath
       id="clipPath17966"
       clipPathUnits="userSpaceOnUse"><path
         style="clip-rule:evenodd"
         id="path17964"
         d="m 352.85,35.904 h 43.224 v 25.2 H 352.85 Z" /></clipPath><clipPath
       id="clipPath17974"
       clipPathUnits="userSpaceOnUse"><path
         style="clip-rule:evenodd"
         id="path17972"
         d="m 396.07,35.904 h 43.2 v 25.2 h -43.2 z" /></clipPath><clipPath
       id="clipPath17982"
       clipPathUnits="userSpaceOnUse"><path
         style="clip-rule:evenodd"
         id="path17980"
         d="m 396.07,35.904 h 43.2 v 25.2 h -43.2 z" /></clipPath><clipPath
       id="clipPath17990"
       clipPathUnits="userSpaceOnUse"><path
         style="clip-rule:evenodd"
         id="path17988"
         d="m 439.27,35.904 h 309.65 v 25.2 H 439.27 Z" /></clipPath><clipPath
       id="clipPath17998"
       clipPathUnits="userSpaceOnUse"><path
         style="clip-rule:evenodd"
         id="path17996"
         d="m 439.27,35.904 h 309.65 v 25.2 H 439.27 Z" /></clipPath><clipPath
       id="clipPath18010"
       clipPathUnits="userSpaceOnUse"><path
         style="clip-rule:evenodd"
         id="path18008"
         d="m 439.27,35.904 h 309.65 v 25.2 H 439.27 Z" /></clipPath><clipPath
       id="clipPath18018"
       clipPathUnits="userSpaceOnUse"><path
         style="clip-rule:evenodd"
         id="path18016"
         d="M 1.1802e-5,0 H 792.00001 V 612 H 1.1802e-5 Z" /></clipPath><clipPath
       id="clipPath18038"
       clipPathUnits="userSpaceOnUse"><path
         style="clip-rule:evenodd"
         id="path18036"
         d="M 0,612 H 792 V 6.1035e-5 H 7.629e-6" /></clipPath><clipPath
       id="clipPath18052"
       clipPathUnits="userSpaceOnUse"><path
         style="clip-rule:evenodd"
         id="path18050"
         d="M -2.2888e-5,612 H 792 V 6.1035e-5 H 2.2888e-5" /></clipPath><clipPath
       id="clipPath18062"
       clipPathUnits="userSpaceOnUse"><path
         style="clip-rule:evenodd"
         id="path18060"
         d="M -2.2888e-5,612 H 792 V 6.1035e-5 H 2.2888e-5" /></clipPath><clipPath
       id="clipPath18078"
       clipPathUnits="userSpaceOnUse"><path
         style="clip-rule:evenodd"
         id="path18076"
         d="M 0,612 H 792 V 6.1035e-5 L 6.1035e-5,1.2207e-4" /></clipPath><clipPath
       id="clipPath18090"
       clipPathUnits="userSpaceOnUse"><path
         style="clip-rule:evenodd"
         id="path18088"
         d="M -3.0518e-5,612 H 792 V -6.1035e-5 H -3.0518e-5" /></clipPath><clipPath
       id="clipPath18102"
       clipPathUnits="userSpaceOnUse"><path
         style="clip-rule:evenodd"
         id="path18100"
         d="M 0,612 H 792 V 1.2207e-4 H 6.1035e-5" /></clipPath><clipPath
       id="clipPath18112"
       clipPathUnits="userSpaceOnUse"><path
         style="clip-rule:evenodd"
         id="path18110"
         d="M 0,612 H 792 V 1.2207e-4 H 6.1035e-5" /></clipPath></defs><g
     transform="matrix(1.3333333,0,0,-1.3333333,0,256)"
     id="g15996"><g
       transform="matrix(2.985984,0,0,2.985984,-1353.8784,-236.40364)"
       id="g18072"><g
         clip-path="url(#clipPath18078)"
         id="g18074"><path
           id="path18080"
           style="fill:#000000;fill-opacity:1;fill-rule:nonzero;stroke:none"
           d="m 509.59,136.31 0.11,-0.87 0.05,-0.91 -0.01,-0.93 -0.05,-0.93 -0.11,-0.95 -0.16,-0.96 -0.21,-0.96 -0.25,-0.97 -0.31,-0.96 -0.35,-0.96 -0.84,-1.9 -1,-1.86 -1.16,-1.8 -1.32,-1.7 -1.45,-1.6 -1.6,-1.47 -1.71,-1.3 -0.91,-0.6 -0.93,-0.54 -0.97,-0.49 -0.98,-0.44 -1.02,-0.38 -1.04,-0.33 -1.06,-0.25 -1.07,-0.19 -1.27,-0.16 -1.23,-0.1 -1.21,-0.04 -1.17,0.02 -1.15,0.07 -1.11,0.13 -1.08,0.17 -1.06,0.24 -1.03,0.28 -1.01,0.32 -0.98,0.38 -0.97,0.42 -1.83,0.96 -1.77,1.13 -1.69,1.29 -1.63,1.42 -1.57,1.55 -1.53,1.67 -1.5,1.77 -1.48,1.88 -2.91,3.98 1.2,0.89 2.91,-3.97 -0.01,0.02 1.46,-1.86 -0.01,0.02 1.47,-1.75 -0.02,0.03 1.51,-1.65 -0.03,0.02 1.55,-1.52 -0.03,0.03 1.59,-1.38 -0.04,0.03 1.64,-1.26 -0.05,0.04 1.72,-1.1 -0.06,0.04 1.79,-0.94 -0.05,0.02 0.92,-0.4 -0.03,0.01 0.94,-0.36 -0.03,0.01 0.97,-0.31 -0.03,0.01 0.99,-0.27 -0.03,0.01 1.02,-0.23 -0.05,0.01 1.05,-0.16 h -0.03 l 1.08,-0.13 -0.04,0.01 1.11,-0.07 h -0.04 l 1.13,-0.02 h -0.03 l 1.17,0.04 h -0.04 l 1.2,0.1 -0.03,-0.01 1.24,0.15 H 491 l 1.02,0.19 -0.03,-0.01 1.02,0.24 -0.05,-0.02 0.99,0.31 -0.05,-0.01 0.98,0.36 -0.04,-0.01 0.94,0.42 -0.03,-0.02 0.93,0.47 -0.04,-0.02 0.9,0.53 -0.03,-0.02 0.87,0.57 -0.05,-0.03 1.67,1.26 -0.05,-0.04 1.54,1.42 -0.05,-0.05 1.41,1.55 -0.04,-0.04 1.29,1.65 -0.04,-0.05 1.12,1.75 -0.02,-0.05 0.97,1.81 -0.03,-0.06 0.81,1.85 -0.01,-0.05 0.33,0.93 -0.01,-0.02 0.3,0.93 -0.01,-0.04 0.25,0.93 -0.01,-0.04 0.2,0.93 v -0.03 l 0.15,0.92 -0.01,-0.04 0.11,0.91 -0.01,-0.04 0.06,0.89 v -0.04 0.89 -0.05 l -0.05,0.86 0.01,-0.05 -0.11,0.84 z m -49.36,-8.18 c -0.97,1.34 -0.67,3.21 0.67,4.19 1.34,0.97 3.22,0.67 4.19,-0.68 0.97,-1.34 0.67,-3.21 -0.67,-4.19 -1.34,-0.97 -3.22,-0.67 -4.19,0.68 z" /></g></g><path
       id="path18082"
       style="fill:#000000;fill-opacity:1;fill-rule:nonzero;stroke:none;stroke-width:2.98598409"
       d="m 165.24105,28.211292 2.5381,129.296098 -4.47898,0.0895 -2.53809,-129.299084 z m -11.1377,3.206947 8.59962,-18.089092 9.31628,17.736745 z" /></g></svg>