<?xml version="1.0" encoding="UTF-8" standalone="no"?>
<svg
   xmlns:dc="http://purl.org/dc/elements/1.1/"
   xmlns:cc="http://creativecommons.org/ns#"
   xmlns:rdf="http://www.w3.org/1999/02/22-rdf-syntax-ns#"
   xmlns:svg="http://www.w3.org/2000/svg"
   xmlns="http://www.w3.org/2000/svg"
   viewBox="0 0 256 256"
   height="256"
   width="256"
   xml:space="preserve"
   id="svg9973"
   version="1.1"><metadata
     id="metadata9979"><rdf:RDF><cc:Work
         rdf:about=""><dc:format>image/svg+xml</dc:format><dc:type
           rdf:resource="http://purl.org/dc/dcmitype/StillImage" /><dc:title></dc:title></cc:Work></rdf:RDF></metadata><defs
     id="defs9977"><clipPath
       id="clipPath9989"
       clipPathUnits="userSpaceOnUse"><path
         style="clip-rule:evenodd"
         id="path9987"
         d="m 43.2,61.104 h 309.65 v 489.7 H 43.2 Z" /></clipPath><clipPath
       id="clipPath9997"
       clipPathUnits="userSpaceOnUse"><path
         style="clip-rule:evenodd"
         id="path9995"
         d="m 43.2,61.104 h 309.65 v 489.7 H 43.2 Z" /></clipPath><clipPath
       id="clipPath10009"
       clipPathUnits="userSpaceOnUse"><path
         style="clip-rule:evenodd"
         id="path10007"
         d="m 43.2,61.104 h 309.65 v 489.7 H 43.2 Z" /></clipPath><clipPath
       id="clipPath10017"
       clipPathUnits="userSpaceOnUse"><path
         style="clip-rule:evenodd"
         id="path10015"
         d="M 43.2,437.98 H 151.22 V 529.9 H 43.2 Z" /></clipPath><clipPath
       id="clipPath10025"
       clipPathUnits="userSpaceOnUse"><path
         style="clip-rule:evenodd"
         id="path10023"
         d="M 43.2,437.98 H 151.22 V 529.9 H 43.2 Z" /></clipPath><clipPath
       id="clipPath10033"
       clipPathUnits="userSpaceOnUse"><path
         style="clip-rule:evenodd"
         id="path10031"
         d="M 43.2,437.98 H 151.22 V 529.9 H 43.2 Z" /></clipPath><clipPath
       id="clipPath10041"
       clipPathUnits="userSpaceOnUse"><path
         style="clip-rule:evenodd"
         id="path10039"
         d="M 43.2,437.98 H 151.22 V 529.9 H 43.2 Z" /></clipPath><clipPath
       id="clipPath10049"
       clipPathUnits="userSpaceOnUse"><path
         style="clip-rule:evenodd"
         id="path10047"
         d="M 151.22,437.98 H 352.84 V 529.9 H 151.22 Z" /></clipPath><clipPath
       id="clipPath10057"
       clipPathUnits="userSpaceOnUse"><path
         style="clip-rule:evenodd"
         id="path10055"
         d="M 151.22,437.98 H 352.84 V 529.9 H 151.22 Z" /></clipPath><clipPath
       id="clipPath10069"
       clipPathUnits="userSpaceOnUse"><path
         style="clip-rule:evenodd"
         id="path10067"
         d="M 151.22,437.98 H 352.84 V 529.9 H 151.22 Z" /></clipPath><clipPath
       id="clipPath10081"
       clipPathUnits="userSpaceOnUse"><path
         style="clip-rule:evenodd"
         id="path10079"
         d="M 151.22,437.98 H 352.84 V 529.9 H 151.22 Z" /></clipPath><clipPath
       id="clipPath10093"
       clipPathUnits="userSpaceOnUse"><path
         style="clip-rule:evenodd"
         id="path10091"
         d="M 151.22,437.98 H 352.84 V 529.9 H 151.22 Z" /></clipPath><clipPath
       id="clipPath10105"
       clipPathUnits="userSpaceOnUse"><path
         style="clip-rule:evenodd"
         id="path10103"
         d="M 151.22,437.98 H 352.84 V 529.9 H 151.22 Z" /></clipPath><clipPath
       id="clipPath10117"
       clipPathUnits="userSpaceOnUse"><path
         style="clip-rule:evenodd"
         id="path10115"
         d="M 151.22,437.98 H 352.84 V 529.9 H 151.22 Z" /></clipPath><clipPath
       id="clipPath10129"
       clipPathUnits="userSpaceOnUse"><path
         style="clip-rule:evenodd"
         id="path10127"
         d="M 151.22,437.98 H 352.84 V 529.9 H 151.22 Z" /></clipPath><clipPath
       id="clipPath10141"
       clipPathUnits="userSpaceOnUse"><path
         style="clip-rule:evenodd"
         id="path10139"
         d="M 151.22,437.98 H 352.84 V 529.9 H 151.22 Z" /></clipPath><clipPath
       id="clipPath10153"
       clipPathUnits="userSpaceOnUse"><path
         style="clip-rule:evenodd"
         id="path10151"
         d="M 151.22,437.98 H 352.84 V 529.9 H 151.22 Z" /></clipPath><clipPath
       id="clipPath10165"
       clipPathUnits="userSpaceOnUse"><path
         style="clip-rule:evenodd"
         id="path10163"
         d="M 151.22,437.98 H 352.84 V 529.9 H 151.22 Z" /></clipPath><clipPath
       id="clipPath10177"
       clipPathUnits="userSpaceOnUse"><path
         style="clip-rule:evenodd"
         id="path10175"
         d="M 151.22,437.98 H 352.84 V 529.9 H 151.22 Z" /></clipPath><clipPath
       id="clipPath10189"
       clipPathUnits="userSpaceOnUse"><path
         style="clip-rule:evenodd"
         id="path10187"
         d="M 151.22,437.98 H 352.84 V 529.9 H 151.22 Z" /></clipPath><clipPath
       id="clipPath10201"
       clipPathUnits="userSpaceOnUse"><path
         style="clip-rule:evenodd"
         id="path10199"
         d="M 151.22,437.98 H 352.84 V 529.9 H 151.22 Z" /></clipPath><clipPath
       id="clipPath10213"
       clipPathUnits="userSpaceOnUse"><path
         style="clip-rule:evenodd"
         id="path10211"
         d="M 151.22,437.98 H 352.84 V 529.9 H 151.22 Z" /></clipPath><clipPath
       id="clipPath10221"
       clipPathUnits="userSpaceOnUse"><path
         style="clip-rule:evenodd"
         id="path10219"
         d="M 151.22,437.98 H 352.84 V 529.9 H 151.22 Z" /></clipPath><clipPath
       id="clipPath10233"
       clipPathUnits="userSpaceOnUse"><path
         style="clip-rule:evenodd"
         id="path10231"
         d="M 151.22,437.98 H 352.84 V 529.9 H 151.22 Z" /></clipPath><clipPath
       id="clipPath10245"
       clipPathUnits="userSpaceOnUse"><path
         style="clip-rule:evenodd"
         id="path10243"
         d="M 151.22,437.98 H 352.84 V 529.9 H 151.22 Z" /></clipPath><clipPath
       id="clipPath10257"
       clipPathUnits="userSpaceOnUse"><path
         style="clip-rule:evenodd"
         id="path10255"
         d="M 151.22,437.98 H 352.84 V 529.9 H 151.22 Z" /></clipPath><clipPath
       id="clipPath10269"
       clipPathUnits="userSpaceOnUse"><path
         style="clip-rule:evenodd"
         id="path10267"
         d="M 151.22,437.98 H 352.84 V 529.9 H 151.22 Z" /></clipPath><clipPath
       id="clipPath10277"
       clipPathUnits="userSpaceOnUse"><path
         style="clip-rule:evenodd"
         id="path10275"
         d="M 151.22,437.98 H 352.84 V 529.9 H 151.22 Z" /></clipPath><clipPath
       id="clipPath10289"
       clipPathUnits="userSpaceOnUse"><path
         style="clip-rule:evenodd"
         id="path10287"
         d="M 151.22,437.98 H 352.84 V 529.9 H 151.22 Z" /></clipPath><clipPath
       id="clipPath10301"
       clipPathUnits="userSpaceOnUse"><path
         style="clip-rule:evenodd"
         id="path10299"
         d="M 151.22,437.98 H 352.84 V 529.9 H 151.22 Z" /></clipPath><clipPath
       id="clipPath10313"
       clipPathUnits="userSpaceOnUse"><path
         style="clip-rule:evenodd"
         id="path10311"
         d="M 151.22,437.98 H 352.84 V 529.9 H 151.22 Z" /></clipPath><clipPath
       id="clipPath10321"
       clipPathUnits="userSpaceOnUse"><path
         style="clip-rule:evenodd"
         id="path10319"
         d="m 43.2,61.104 h 309.65 v 489.7 H 43.2 Z" /></clipPath><clipPath
       id="clipPath10333"
       clipPathUnits="userSpaceOnUse"><path
         style="clip-rule:evenodd"
         id="path10331"
         d="m 43.2,61.104 h 309.65 v 489.7 H 43.2 Z" /></clipPath><clipPath
       id="clipPath10341"
       clipPathUnits="userSpaceOnUse"><path
         style="clip-rule:evenodd"
         id="path10339"
         d="m 43.2,318.43 h 108.02 v 74.64 H 43.2 Z" /></clipPath><clipPath
       id="clipPath10349"
       clipPathUnits="userSpaceOnUse"><path
         style="clip-rule:evenodd"
         id="path10347"
         d="m 43.2,318.43 h 108.02 v 74.64 H 43.2 Z" /></clipPath><clipPath
       id="clipPath10357"
       clipPathUnits="userSpaceOnUse"><path
         style="clip-rule:evenodd"
         id="path10355"
         d="m 43.2,318.43 h 108.02 v 74.64 H 43.2 Z" /></clipPath><clipPath
       id="clipPath10365"
       clipPathUnits="userSpaceOnUse"><path
         style="clip-rule:evenodd"
         id="path10363"
         d="m 151.22,318.43 h 201.62 v 74.64 H 151.22 Z" /></clipPath><clipPath
       id="clipPath10373"
       clipPathUnits="userSpaceOnUse"><path
         style="clip-rule:evenodd"
         id="path10371"
         d="m 151.22,318.43 h 201.62 v 74.64 H 151.22 Z" /></clipPath><clipPath
       id="clipPath10385"
       clipPathUnits="userSpaceOnUse"><path
         style="clip-rule:evenodd"
         id="path10383"
         d="m 151.22,318.43 h 201.62 v 74.64 H 151.22 Z" /></clipPath><clipPath
       id="clipPath10397"
       clipPathUnits="userSpaceOnUse"><path
         style="clip-rule:evenodd"
         id="path10395"
         d="m 151.22,318.43 h 201.62 v 74.64 H 151.22 Z" /></clipPath><clipPath
       id="clipPath10409"
       clipPathUnits="userSpaceOnUse"><path
         style="clip-rule:evenodd"
         id="path10407"
         d="m 151.22,318.43 h 201.62 v 74.64 H 151.22 Z" /></clipPath><clipPath
       id="clipPath10421"
       clipPathUnits="userSpaceOnUse"><path
         style="clip-rule:evenodd"
         id="path10419"
         d="m 151.22,318.43 h 201.62 v 74.64 H 151.22 Z" /></clipPath><clipPath
       id="clipPath10433"
       clipPathUnits="userSpaceOnUse"><path
         style="clip-rule:evenodd"
         id="path10431"
         d="m 151.22,318.43 h 201.62 v 74.64 H 151.22 Z" /></clipPath><clipPath
       id="clipPath10445"
       clipPathUnits="userSpaceOnUse"><path
         style="clip-rule:evenodd"
         id="path10443"
         d="m 151.22,318.43 h 201.62 v 74.64 H 151.22 Z" /></clipPath><clipPath
       id="clipPath10457"
       clipPathUnits="userSpaceOnUse"><path
         style="clip-rule:evenodd"
         id="path10455"
         d="m 151.22,318.43 h 201.62 v 74.64 H 151.22 Z" /></clipPath><clipPath
       id="clipPath10469"
       clipPathUnits="userSpaceOnUse"><path
         style="clip-rule:evenodd"
         id="path10467"
         d="m 151.22,318.43 h 201.62 v 74.64 H 151.22 Z" /></clipPath><clipPath
       id="clipPath10481"
       clipPathUnits="userSpaceOnUse"><path
         style="clip-rule:evenodd"
         id="path10479"
         d="m 151.22,318.43 h 201.62 v 74.64 H 151.22 Z" /></clipPath><clipPath
       id="clipPath10489"
       clipPathUnits="userSpaceOnUse"><path
         style="clip-rule:evenodd"
         id="path10487"
         d="m 151.22,318.43 h 201.62 v 74.64 H 151.22 Z" /></clipPath><clipPath
       id="clipPath10501"
       clipPathUnits="userSpaceOnUse"><path
         style="clip-rule:evenodd"
         id="path10499"
         d="m 151.22,318.43 h 201.62 v 74.64 H 151.22 Z" /></clipPath><clipPath
       id="clipPath10513"
       clipPathUnits="userSpaceOnUse"><path
         style="clip-rule:evenodd"
         id="path10511"
         d="m 151.22,318.43 h 201.62 v 74.64 H 151.22 Z" /></clipPath><clipPath
       id="clipPath10525"
       clipPathUnits="userSpaceOnUse"><path
         style="clip-rule:evenodd"
         id="path10523"
         d="m 151.22,318.43 h 201.62 v 74.64 H 151.22 Z" /></clipPath><clipPath
       id="clipPath10533"
       clipPathUnits="userSpaceOnUse"><path
         style="clip-rule:evenodd"
         id="path10531"
         d="m 151.22,318.43 h 201.62 v 74.64 H 151.22 Z" /></clipPath><clipPath
       id="clipPath10545"
       clipPathUnits="userSpaceOnUse"><path
         style="clip-rule:evenodd"
         id="path10543"
         d="m 151.22,318.43 h 201.62 v 74.64 H 151.22 Z" /></clipPath><clipPath
       id="clipPath10553"
       clipPathUnits="userSpaceOnUse"><path
         style="clip-rule:evenodd"
         id="path10551"
         d="m 43.2,61.104 h 309.65 v 489.7 H 43.2 Z" /></clipPath><clipPath
       id="clipPath10565"
       clipPathUnits="userSpaceOnUse"><path
         style="clip-rule:evenodd"
         id="path10563"
         d="m 43.2,61.104 h 309.65 v 489.7 H 43.2 Z" /></clipPath><clipPath
       id="clipPath10573"
       clipPathUnits="userSpaceOnUse"><path
         style="clip-rule:evenodd"
         id="path10571"
         d="m 43.2,61.104 h 309.65 v 489.7 H 43.2 Z" /></clipPath><clipPath
       id="clipPath10583"
       clipPathUnits="userSpaceOnUse"><path
         style="clip-rule:evenodd"
         id="path10581"
         d="m 43.2,191.57 h 108.02 v 77.88 H 43.2 Z" /></clipPath><clipPath
       id="clipPath10591"
       clipPathUnits="userSpaceOnUse"><path
         style="clip-rule:evenodd"
         id="path10589"
         d="m 43.2,191.57 h 108.02 v 77.88 H 43.2 Z" /></clipPath><clipPath
       id="clipPath10599"
       clipPathUnits="userSpaceOnUse"><path
         style="clip-rule:evenodd"
         id="path10597"
         d="m 151.22,191.57 h 201.62 v 77.88 H 151.22 Z" /></clipPath><clipPath
       id="clipPath10607"
       clipPathUnits="userSpaceOnUse"><path
         style="clip-rule:evenodd"
         id="path10605"
         d="m 151.22,191.57 h 201.62 v 77.88 H 151.22 Z" /></clipPath><clipPath
       id="clipPath10619"
       clipPathUnits="userSpaceOnUse"><path
         style="clip-rule:evenodd"
         id="path10617"
         d="m 151.22,191.57 h 201.62 v 77.88 H 151.22 Z" /></clipPath><clipPath
       id="clipPath10631"
       clipPathUnits="userSpaceOnUse"><path
         style="clip-rule:evenodd"
         id="path10629"
         d="m 151.22,191.57 h 201.62 v 77.88 H 151.22 Z" /></clipPath><clipPath
       id="clipPath10643"
       clipPathUnits="userSpaceOnUse"><path
         style="clip-rule:evenodd"
         id="path10641"
         d="m 151.22,191.57 h 201.62 v 77.88 H 151.22 Z" /></clipPath><clipPath
       id="clipPath10655"
       clipPathUnits="userSpaceOnUse"><path
         style="clip-rule:evenodd"
         id="path10653"
         d="m 151.22,191.57 h 201.62 v 77.88 H 151.22 Z" /></clipPath><clipPath
       id="clipPath10667"
       clipPathUnits="userSpaceOnUse"><path
         style="clip-rule:evenodd"
         id="path10665"
         d="m 151.22,191.57 h 201.62 v 77.88 H 151.22 Z" /></clipPath><clipPath
       id="clipPath10679"
       clipPathUnits="userSpaceOnUse"><path
         style="clip-rule:evenodd"
         id="path10677"
         d="m 151.22,191.57 h 201.62 v 77.88 H 151.22 Z" /></clipPath><clipPath
       id="clipPath10691"
       clipPathUnits="userSpaceOnUse"><path
         style="clip-rule:evenodd"
         id="path10689"
         d="m 151.22,191.57 h 201.62 v 77.88 H 151.22 Z" /></clipPath><clipPath
       id="clipPath10703"
       clipPathUnits="userSpaceOnUse"><path
         style="clip-rule:evenodd"
         id="path10701"
         d="m 151.22,191.57 h 201.62 v 77.88 H 151.22 Z" /></clipPath><clipPath
       id="clipPath10715"
       clipPathUnits="userSpaceOnUse"><path
         style="clip-rule:evenodd"
         id="path10713"
         d="m 151.22,191.57 h 201.62 v 77.88 H 151.22 Z" /></clipPath><clipPath
       id="clipPath10723"
       clipPathUnits="userSpaceOnUse"><path
         style="clip-rule:evenodd"
         id="path10721"
         d="m 151.22,191.57 h 201.62 v 77.88 H 151.22 Z" /></clipPath><clipPath
       id="clipPath10735"
       clipPathUnits="userSpaceOnUse"><path
         style="clip-rule:evenodd"
         id="path10733"
         d="m 151.22,191.57 h 201.62 v 77.88 H 151.22 Z" /></clipPath><clipPath
       id="clipPath10743"
       clipPathUnits="userSpaceOnUse"><path
         style="clip-rule:evenodd"
         id="path10741"
         d="m 151.22,191.57 h 201.62 v 77.88 H 151.22 Z" /></clipPath><clipPath
       id="clipPath10755"
       clipPathUnits="userSpaceOnUse"><path
         style="clip-rule:evenodd"
         id="path10753"
         d="m 151.22,191.57 h 201.62 v 77.88 H 151.22 Z" /></clipPath><clipPath
       id="clipPath10767"
       clipPathUnits="userSpaceOnUse"><path
         style="clip-rule:evenodd"
         id="path10765"
         d="m 151.22,191.57 h 201.62 v 77.88 H 151.22 Z" /></clipPath><clipPath
       id="clipPath10775"
       clipPathUnits="userSpaceOnUse"><path
         style="clip-rule:evenodd"
         id="path10773"
         d="m 43.2,61.104 h 309.65 v 489.7 H 43.2 Z" /></clipPath><clipPath
       id="clipPath10787"
       clipPathUnits="userSpaceOnUse"><path
         style="clip-rule:evenodd"
         id="path10785"
         d="m 43.2,61.104 h 309.65 v 489.7 H 43.2 Z" /></clipPath><clipPath
       id="clipPath10795"
       clipPathUnits="userSpaceOnUse"><path
         style="clip-rule:evenodd"
         id="path10793"
         d="m 43.2,67.824 h 108.02 v 74.784 H 43.2 Z" /></clipPath><clipPath
       id="clipPath10803"
       clipPathUnits="userSpaceOnUse"><path
         style="clip-rule:evenodd"
         id="path10801"
         d="m 43.2,67.824 h 108.02 v 74.784 H 43.2 Z" /></clipPath><clipPath
       id="clipPath10811"
       clipPathUnits="userSpaceOnUse"><path
         style="clip-rule:evenodd"
         id="path10809"
         d="m 43.2,67.824 h 108.02 v 74.784 H 43.2 Z" /></clipPath><clipPath
       id="clipPath10819"
       clipPathUnits="userSpaceOnUse"><path
         style="clip-rule:evenodd"
         id="path10817"
         d="m 151.22,67.824 h 201.62 v 74.784 H 151.22 Z" /></clipPath><clipPath
       id="clipPath10827"
       clipPathUnits="userSpaceOnUse"><path
         style="clip-rule:evenodd"
         id="path10825"
         d="m 151.22,67.824 h 201.62 v 74.784 H 151.22 Z" /></clipPath><clipPath
       id="clipPath10839"
       clipPathUnits="userSpaceOnUse"><path
         style="clip-rule:evenodd"
         id="path10837"
         d="m 151.22,67.824 h 201.62 v 74.784 H 151.22 Z" /></clipPath><clipPath
       id="clipPath10851"
       clipPathUnits="userSpaceOnUse"><path
         style="clip-rule:evenodd"
         id="path10849"
         d="m 151.22,67.824 h 201.62 v 74.784 H 151.22 Z" /></clipPath><clipPath
       id="clipPath10863"
       clipPathUnits="userSpaceOnUse"><path
         style="clip-rule:evenodd"
         id="path10861"
         d="m 151.22,67.824 h 201.62 v 74.784 H 151.22 Z" /></clipPath><clipPath
       id="clipPath10875"
       clipPathUnits="userSpaceOnUse"><path
         style="clip-rule:evenodd"
         id="path10873"
         d="m 151.22,67.824 h 201.62 v 74.784 H 151.22 Z" /></clipPath><clipPath
       id="clipPath10887"
       clipPathUnits="userSpaceOnUse"><path
         style="clip-rule:evenodd"
         id="path10885"
         d="m 151.22,67.824 h 201.62 v 74.784 H 151.22 Z" /></clipPath><clipPath
       id="clipPath10895"
       clipPathUnits="userSpaceOnUse"><path
         style="clip-rule:evenodd"
         id="path10893"
         d="m 151.22,67.824 h 201.62 v 74.784 H 151.22 Z" /></clipPath><clipPath
       id="clipPath10907"
       clipPathUnits="userSpaceOnUse"><path
         style="clip-rule:evenodd"
         id="path10905"
         d="m 151.22,67.824 h 201.62 v 74.784 H 151.22 Z" /></clipPath><clipPath
       id="clipPath10919"
       clipPathUnits="userSpaceOnUse"><path
         style="clip-rule:evenodd"
         id="path10917"
         d="m 151.22,67.824 h 201.62 v 74.784 H 151.22 Z" /></clipPath><clipPath
       id="clipPath10931"
       clipPathUnits="userSpaceOnUse"><path
         style="clip-rule:evenodd"
         id="path10929"
         d="m 151.22,67.824 h 201.62 v 74.784 H 151.22 Z" /></clipPath><clipPath
       id="clipPath10939"
       clipPathUnits="userSpaceOnUse"><path
         style="clip-rule:evenodd"
         id="path10937"
         d="m 151.22,67.824 h 201.62 v 74.784 H 151.22 Z" /></clipPath><clipPath
       id="clipPath10951"
       clipPathUnits="userSpaceOnUse"><path
         style="clip-rule:evenodd"
         id="path10949"
         d="m 151.22,67.824 h 201.62 v 74.784 H 151.22 Z" /></clipPath><clipPath
       id="clipPath10959"
       clipPathUnits="userSpaceOnUse"><path
         style="clip-rule:evenodd"
         id="path10957"
         d="m 43.2,61.104 h 309.65 v 489.7 H 43.2 Z" /></clipPath><clipPath
       id="clipPath10967"
       clipPathUnits="userSpaceOnUse"><path
         style="clip-rule:evenodd"
         id="path10965"
         d="m 352.85,61.104 h 43.224 v 489.7 H 352.85 Z" /></clipPath><clipPath
       id="clipPath10975"
       clipPathUnits="userSpaceOnUse"><path
         style="clip-rule:evenodd"
         id="path10973"
         d="m 352.85,61.104 h 43.224 v 489.7 H 352.85 Z" /></clipPath><clipPath
       id="clipPath10983"
       clipPathUnits="userSpaceOnUse"><path
         style="clip-rule:evenodd"
         id="path10981"
         d="m 396.07,61.104 h 43.2 v 489.7 h -43.2 z" /></clipPath><clipPath
       id="clipPath10991"
       clipPathUnits="userSpaceOnUse"><path
         style="clip-rule:evenodd"
         id="path10989"
         d="m 396.07,61.104 h 43.2 v 489.7 h -43.2 z" /></clipPath><clipPath
       id="clipPath10999"
       clipPathUnits="userSpaceOnUse"><path
         style="clip-rule:evenodd"
         id="path10997"
         d="m 439.27,61.104 h 309.65 v 489.7 H 439.27 Z" /></clipPath><clipPath
       id="clipPath11007"
       clipPathUnits="userSpaceOnUse"><path
         style="clip-rule:evenodd"
         id="path11005"
         d="m 439.27,61.104 h 309.65 v 489.7 H 439.27 Z" /></clipPath><clipPath
       id="clipPath11019"
       clipPathUnits="userSpaceOnUse"><path
         style="clip-rule:evenodd"
         id="path11017"
         d="m 439.27,61.104 h 309.65 v 489.7 H 439.27 Z" /></clipPath><clipPath
       id="clipPath11027"
       clipPathUnits="userSpaceOnUse"><path
         style="clip-rule:evenodd"
         id="path11025"
         d="m 439.27,463.3 h 108.02 v 66.6 H 439.27 Z" /></clipPath><clipPath
       id="clipPath11035"
       clipPathUnits="userSpaceOnUse"><path
         style="clip-rule:evenodd"
         id="path11033"
         d="m 439.27,463.3 h 108.02 v 66.6 H 439.27 Z" /></clipPath><clipPath
       id="clipPath11043"
       clipPathUnits="userSpaceOnUse"><path
         style="clip-rule:evenodd"
         id="path11041"
         d="m 439.27,463.3 h 108.02 v 66.6 H 439.27 Z" /></clipPath><clipPath
       id="clipPath11051"
       clipPathUnits="userSpaceOnUse"><path
         style="clip-rule:evenodd"
         id="path11049"
         d="m 439.27,463.3 h 108.02 v 66.6 H 439.27 Z" /></clipPath><clipPath
       id="clipPath11059"
       clipPathUnits="userSpaceOnUse"><path
         style="clip-rule:evenodd"
         id="path11057"
         d="m 547.3,463.3 h 201.62 v 66.6 H 547.3 Z" /></clipPath><clipPath
       id="clipPath11067"
       clipPathUnits="userSpaceOnUse"><path
         style="clip-rule:evenodd"
         id="path11065"
         d="m 547.3,463.3 h 201.62 v 66.6 H 547.3 Z" /></clipPath><clipPath
       id="clipPath11079"
       clipPathUnits="userSpaceOnUse"><path
         style="clip-rule:evenodd"
         id="path11077"
         d="m 547.3,463.3 h 201.62 v 66.6 H 547.3 Z" /></clipPath><clipPath
       id="clipPath11091"
       clipPathUnits="userSpaceOnUse"><path
         style="clip-rule:evenodd"
         id="path11089"
         d="m 547.3,463.3 h 201.62 v 66.6 H 547.3 Z" /></clipPath><clipPath
       id="clipPath11103"
       clipPathUnits="userSpaceOnUse"><path
         style="clip-rule:evenodd"
         id="path11101"
         d="m 547.3,463.3 h 201.62 v 66.6 H 547.3 Z" /></clipPath><clipPath
       id="clipPath11115"
       clipPathUnits="userSpaceOnUse"><path
         style="clip-rule:evenodd"
         id="path11113"
         d="m 547.3,463.3 h 201.62 v 66.6 H 547.3 Z" /></clipPath><clipPath
       id="clipPath11127"
       clipPathUnits="userSpaceOnUse"><path
         style="clip-rule:evenodd"
         id="path11125"
         d="m 547.3,463.3 h 201.62 v 66.6 H 547.3 Z" /></clipPath><clipPath
       id="clipPath11139"
       clipPathUnits="userSpaceOnUse"><path
         style="clip-rule:evenodd"
         id="path11137"
         d="m 547.3,463.3 h 201.62 v 66.6 H 547.3 Z" /></clipPath><clipPath
       id="clipPath11151"
       clipPathUnits="userSpaceOnUse"><path
         style="clip-rule:evenodd"
         id="path11149"
         d="m 547.3,463.3 h 201.62 v 66.6 H 547.3 Z" /></clipPath><clipPath
       id="clipPath11159"
       clipPathUnits="userSpaceOnUse"><path
         style="clip-rule:evenodd"
         id="path11157"
         d="m 547.3,463.3 h 201.62 v 66.6 H 547.3 Z" /></clipPath><clipPath
       id="clipPath11171"
       clipPathUnits="userSpaceOnUse"><path
         style="clip-rule:evenodd"
         id="path11169"
         d="m 547.3,463.3 h 201.62 v 66.6 H 547.3 Z" /></clipPath><clipPath
       id="clipPath11179"
       clipPathUnits="userSpaceOnUse"><path
         style="clip-rule:evenodd"
         id="path11177"
         d="m 547.3,463.3 h 201.62 v 66.6 H 547.3 Z" /></clipPath><clipPath
       id="clipPath11191"
       clipPathUnits="userSpaceOnUse"><path
         style="clip-rule:evenodd"
         id="path11189"
         d="m 547.3,463.3 h 201.62 v 66.6 H 547.3 Z" /></clipPath><clipPath
       id="clipPath11199"
       clipPathUnits="userSpaceOnUse"><path
         style="clip-rule:evenodd"
         id="path11197"
         d="m 439.27,61.104 h 309.65 v 489.7 H 439.27 Z" /></clipPath><clipPath
       id="clipPath11211"
       clipPathUnits="userSpaceOnUse"><path
         style="clip-rule:evenodd"
         id="path11209"
         d="m 439.27,61.104 h 309.65 v 489.7 H 439.27 Z" /></clipPath><clipPath
       id="clipPath11219"
       clipPathUnits="userSpaceOnUse"><path
         style="clip-rule:evenodd"
         id="path11217"
         d="m 439.27,321.79 h 108.02 v 96.624 H 439.27 Z" /></clipPath><clipPath
       id="clipPath11227"
       clipPathUnits="userSpaceOnUse"><path
         style="clip-rule:evenodd"
         id="path11225"
         d="m 439.27,321.79 h 108.02 v 96.624 H 439.27 Z" /></clipPath><clipPath
       id="clipPath11235"
       clipPathUnits="userSpaceOnUse"><path
         style="clip-rule:evenodd"
         id="path11233"
         d="m 439.27,321.79 h 108.02 v 96.624 H 439.27 Z" /></clipPath><clipPath
       id="clipPath11243"
       clipPathUnits="userSpaceOnUse"><path
         style="clip-rule:evenodd"
         id="path11241"
         d="m 547.3,321.79 h 201.62 v 96.624 H 547.3 Z" /></clipPath><clipPath
       id="clipPath11251"
       clipPathUnits="userSpaceOnUse"><path
         style="clip-rule:evenodd"
         id="path11249"
         d="m 547.3,321.79 h 201.62 v 96.624 H 547.3 Z" /></clipPath><clipPath
       id="clipPath11263"
       clipPathUnits="userSpaceOnUse"><path
         style="clip-rule:evenodd"
         id="path11261"
         d="m 547.3,321.79 h 201.62 v 96.624 H 547.3 Z" /></clipPath><clipPath
       id="clipPath11275"
       clipPathUnits="userSpaceOnUse"><path
         style="clip-rule:evenodd"
         id="path11273"
         d="m 547.3,321.79 h 201.62 v 96.624 H 547.3 Z" /></clipPath><clipPath
       id="clipPath11287"
       clipPathUnits="userSpaceOnUse"><path
         style="clip-rule:evenodd"
         id="path11285"
         d="m 547.3,321.79 h 201.62 v 96.624 H 547.3 Z" /></clipPath><clipPath
       id="clipPath11299"
       clipPathUnits="userSpaceOnUse"><path
         style="clip-rule:evenodd"
         id="path11297"
         d="m 547.3,321.79 h 201.62 v 96.624 H 547.3 Z" /></clipPath><clipPath
       id="clipPath11311"
       clipPathUnits="userSpaceOnUse"><path
         style="clip-rule:evenodd"
         id="path11309"
         d="m 547.3,321.79 h 201.62 v 96.624 H 547.3 Z" /></clipPath><clipPath
       id="clipPath11323"
       clipPathUnits="userSpaceOnUse"><path
         style="clip-rule:evenodd"
         id="path11321"
         d="m 547.3,321.79 h 201.62 v 96.624 H 547.3 Z" /></clipPath><clipPath
       id="clipPath11335"
       clipPathUnits="userSpaceOnUse"><path
         style="clip-rule:evenodd"
         id="path11333"
         d="m 547.3,321.79 h 201.62 v 96.624 H 547.3 Z" /></clipPath><clipPath
       id="clipPath11347"
       clipPathUnits="userSpaceOnUse"><path
         style="clip-rule:evenodd"
         id="path11345"
         d="m 547.3,321.79 h 201.62 v 96.624 H 547.3 Z" /></clipPath><clipPath
       id="clipPath11359"
       clipPathUnits="userSpaceOnUse"><path
         style="clip-rule:evenodd"
         id="path11357"
         d="m 547.3,321.79 h 201.62 v 96.624 H 547.3 Z" /></clipPath><clipPath
       id="clipPath11367"
       clipPathUnits="userSpaceOnUse"><path
         style="clip-rule:evenodd"
         id="path11365"
         d="m 547.3,321.79 h 201.62 v 96.624 H 547.3 Z" /></clipPath><clipPath
       id="clipPath11379"
       clipPathUnits="userSpaceOnUse"><path
         style="clip-rule:evenodd"
         id="path11377"
         d="m 547.3,321.79 h 201.62 v 96.624 H 547.3 Z" /></clipPath><clipPath
       id="clipPath11387"
       clipPathUnits="userSpaceOnUse"><path
         style="clip-rule:evenodd"
         id="path11385"
         d="m 547.3,321.79 h 201.62 v 96.624 H 547.3 Z" /></clipPath><clipPath
       id="clipPath11399"
       clipPathUnits="userSpaceOnUse"><path
         style="clip-rule:evenodd"
         id="path11397"
         d="m 547.3,321.79 h 201.62 v 96.624 H 547.3 Z" /></clipPath><clipPath
       id="clipPath11411"
       clipPathUnits="userSpaceOnUse"><path
         style="clip-rule:evenodd"
         id="path11409"
         d="m 547.3,321.79 h 201.62 v 96.624 H 547.3 Z" /></clipPath><clipPath
       id="clipPath11423"
       clipPathUnits="userSpaceOnUse"><path
         style="clip-rule:evenodd"
         id="path11421"
         d="m 547.3,321.79 h 201.62 v 96.624 H 547.3 Z" /></clipPath><clipPath
       id="clipPath11435"
       clipPathUnits="userSpaceOnUse"><path
         style="clip-rule:evenodd"
         id="path11433"
         d="m 547.3,321.79 h 201.62 v 96.624 H 547.3 Z" /></clipPath><clipPath
       id="clipPath11443"
       clipPathUnits="userSpaceOnUse"><path
         style="clip-rule:evenodd"
         id="path11441"
         d="m 439.27,61.104 h 309.65 v 489.7 H 439.27 Z" /></clipPath><clipPath
       id="clipPath11455"
       clipPathUnits="userSpaceOnUse"><path
         style="clip-rule:evenodd"
         id="path11453"
         d="m 439.27,61.104 h 309.65 v 489.7 H 439.27 Z" /></clipPath><clipPath
       id="clipPath11467"
       clipPathUnits="userSpaceOnUse"><path
         style="clip-rule:evenodd"
         id="path11465"
         d="m 439.27,61.104 h 309.65 v 489.7 H 439.27 Z" /></clipPath><clipPath
       id="clipPath11479"
       clipPathUnits="userSpaceOnUse"><path
         style="clip-rule:evenodd"
         id="path11477"
         d="m 439.27,61.104 h 309.65 v 489.7 H 439.27 Z" /></clipPath><clipPath
       id="clipPath11487"
       clipPathUnits="userSpaceOnUse"><path
         style="clip-rule:evenodd"
         id="path11485"
         d="m 439.27,194.81 h 108.02 v 78.024 H 439.27 Z" /></clipPath><clipPath
       id="clipPath11495"
       clipPathUnits="userSpaceOnUse"><path
         style="clip-rule:evenodd"
         id="path11493"
         d="m 439.27,194.81 h 108.02 v 78.024 H 439.27 Z" /></clipPath><clipPath
       id="clipPath11503"
       clipPathUnits="userSpaceOnUse"><path
         style="clip-rule:evenodd"
         id="path11501"
         d="m 439.27,194.81 h 108.02 v 78.024 H 439.27 Z" /></clipPath><clipPath
       id="clipPath11511"
       clipPathUnits="userSpaceOnUse"><path
         style="clip-rule:evenodd"
         id="path11509"
         d="m 547.3,194.81 h 201.62 v 78.024 H 547.3 Z" /></clipPath><clipPath
       id="clipPath11519"
       clipPathUnits="userSpaceOnUse"><path
         style="clip-rule:evenodd"
         id="path11517"
         d="m 547.3,194.81 h 201.62 v 78.024 H 547.3 Z" /></clipPath><clipPath
       id="clipPath11531"
       clipPathUnits="userSpaceOnUse"><path
         style="clip-rule:evenodd"
         id="path11529"
         d="m 547.3,194.81 h 201.62 v 78.024 H 547.3 Z" /></clipPath><clipPath
       id="clipPath11543"
       clipPathUnits="userSpaceOnUse"><path
         style="clip-rule:evenodd"
         id="path11541"
         d="m 547.3,194.81 h 201.62 v 78.024 H 547.3 Z" /></clipPath><clipPath
       id="clipPath11555"
       clipPathUnits="userSpaceOnUse"><path
         style="clip-rule:evenodd"
         id="path11553"
         d="m 547.3,194.81 h 201.62 v 78.024 H 547.3 Z" /></clipPath><clipPath
       id="clipPath11567"
       clipPathUnits="userSpaceOnUse"><path
         style="clip-rule:evenodd"
         id="path11565"
         d="m 547.3,194.81 h 201.62 v 78.024 H 547.3 Z" /></clipPath><clipPath
       id="clipPath11579"
       clipPathUnits="userSpaceOnUse"><path
         style="clip-rule:evenodd"
         id="path11577"
         d="m 547.3,194.81 h 201.62 v 78.024 H 547.3 Z" /></clipPath><clipPath
       id="clipPath11587"
       clipPathUnits="userSpaceOnUse"><path
         style="clip-rule:evenodd"
         id="path11585"
         d="m 547.3,194.81 h 201.62 v 78.024 H 547.3 Z" /></clipPath><clipPath
       id="clipPath11599"
       clipPathUnits="userSpaceOnUse"><path
         style="clip-rule:evenodd"
         id="path11597"
         d="m 547.3,194.81 h 201.62 v 78.024 H 547.3 Z" /></clipPath><clipPath
       id="clipPath11607"
       clipPathUnits="userSpaceOnUse"><path
         style="clip-rule:evenodd"
         id="path11605"
         d="m 547.3,194.81 h 201.62 v 78.024 H 547.3 Z" /></clipPath><clipPath
       id="clipPath11619"
       clipPathUnits="userSpaceOnUse"><path
         style="clip-rule:evenodd"
         id="path11617"
         d="m 547.3,194.81 h 201.62 v 78.024 H 547.3 Z" /></clipPath><clipPath
       id="clipPath11631"
       clipPathUnits="userSpaceOnUse"><path
         style="clip-rule:evenodd"
         id="path11629"
         d="m 547.3,194.81 h 201.62 v 78.024 H 547.3 Z" /></clipPath><clipPath
       id="clipPath11639"
       clipPathUnits="userSpaceOnUse"><path
         style="clip-rule:evenodd"
         id="path11637"
         d="m 439.27,61.104 h 309.65 v 489.7 H 439.27 Z" /></clipPath><clipPath
       id="clipPath11651"
       clipPathUnits="userSpaceOnUse"><path
         style="clip-rule:evenodd"
         id="path11649"
         d="m 439.27,61.104 h 309.65 v 489.7 H 439.27 Z" /></clipPath><clipPath
       id="clipPath11663"
       clipPathUnits="userSpaceOnUse"><path
         style="clip-rule:evenodd"
         id="path11661"
         d="m 439.27,61.104 h 309.65 v 489.7 H 439.27 Z" /></clipPath><clipPath
       id="clipPath11671"
       clipPathUnits="userSpaceOnUse"><path
         style="clip-rule:evenodd"
         id="path11669"
         d="m 439.27,74.064 h 108.02 v 71.784 H 439.27 Z" /></clipPath><clipPath
       id="clipPath11679"
       clipPathUnits="userSpaceOnUse"><path
         style="clip-rule:evenodd"
         id="path11677"
         d="m 439.27,74.064 h 108.02 v 71.784 H 439.27 Z" /></clipPath><clipPath
       id="clipPath11687"
       clipPathUnits="userSpaceOnUse"><path
         style="clip-rule:evenodd"
         id="path11685"
         d="m 439.27,74.064 h 108.02 v 71.784 H 439.27 Z" /></clipPath><clipPath
       id="clipPath11695"
       clipPathUnits="userSpaceOnUse"><path
         style="clip-rule:evenodd"
         id="path11693"
         d="m 547.3,74.064 h 201.62 v 71.784 H 547.3 Z" /></clipPath><clipPath
       id="clipPath11703"
       clipPathUnits="userSpaceOnUse"><path
         style="clip-rule:evenodd"
         id="path11701"
         d="m 547.3,74.064 h 201.62 v 71.784 H 547.3 Z" /></clipPath><clipPath
       id="clipPath11715"
       clipPathUnits="userSpaceOnUse"><path
         style="clip-rule:evenodd"
         id="path11713"
         d="m 547.3,74.064 h 201.62 v 71.784 H 547.3 Z" /></clipPath><clipPath
       id="clipPath11727"
       clipPathUnits="userSpaceOnUse"><path
         style="clip-rule:evenodd"
         id="path11725"
         d="m 547.3,74.064 h 201.62 v 71.784 H 547.3 Z" /></clipPath><clipPath
       id="clipPath11739"
       clipPathUnits="userSpaceOnUse"><path
         style="clip-rule:evenodd"
         id="path11737"
         d="m 547.3,74.064 h 201.62 v 71.784 H 547.3 Z" /></clipPath><clipPath
       id="clipPath11751"
       clipPathUnits="userSpaceOnUse"><path
         style="clip-rule:evenodd"
         id="path11749"
         d="m 547.3,74.064 h 201.62 v 71.784 H 547.3 Z" /></clipPath><clipPath
       id="clipPath11763"
       clipPathUnits="userSpaceOnUse"><path
         style="clip-rule:evenodd"
         id="path11761"
         d="m 547.3,74.064 h 201.62 v 71.784 H 547.3 Z" /></clipPath><clipPath
       id="clipPath11775"
       clipPathUnits="userSpaceOnUse"><path
         style="clip-rule:evenodd"
         id="path11773"
         d="m 547.3,74.064 h 201.62 v 71.784 H 547.3 Z" /></clipPath><clipPath
       id="clipPath11787"
       clipPathUnits="userSpaceOnUse"><path
         style="clip-rule:evenodd"
         id="path11785"
         d="m 547.3,74.064 h 201.62 v 71.784 H 547.3 Z" /></clipPath><clipPath
       id="clipPath11799"
       clipPathUnits="userSpaceOnUse"><path
         style="clip-rule:evenodd"
         id="path11797"
         d="m 547.3,74.064 h 201.62 v 71.784 H 547.3 Z" /></clipPath><clipPath
       id="clipPath11811"
       clipPathUnits="userSpaceOnUse"><path
         style="clip-rule:evenodd"
         id="path11809"
         d="m 547.3,74.064 h 201.62 v 71.784 H 547.3 Z" /></clipPath><clipPath
       id="clipPath11823"
       clipPathUnits="userSpaceOnUse"><path
         style="clip-rule:evenodd"
         id="path11821"
         d="m 547.3,74.064 h 201.62 v 71.784 H 547.3 Z" /></clipPath><clipPath
       id="clipPath11835"
       clipPathUnits="userSpaceOnUse"><path
         style="clip-rule:evenodd"
         id="path11833"
         d="m 547.3,74.064 h 201.62 v 71.784 H 547.3 Z" /></clipPath><clipPath
       id="clipPath11847"
       clipPathUnits="userSpaceOnUse"><path
         style="clip-rule:evenodd"
         id="path11845"
         d="m 547.3,74.064 h 201.62 v 71.784 H 547.3 Z" /></clipPath><clipPath
       id="clipPath11859"
       clipPathUnits="userSpaceOnUse"><path
         style="clip-rule:evenodd"
         id="path11857"
         d="m 547.3,74.064 h 201.62 v 71.784 H 547.3 Z" /></clipPath><clipPath
       id="clipPath11867"
       clipPathUnits="userSpaceOnUse"><path
         style="clip-rule:evenodd"
         id="path11865"
         d="m 547.3,74.064 h 201.62 v 71.784 H 547.3 Z" /></clipPath><clipPath
       id="clipPath11879"
       clipPathUnits="userSpaceOnUse"><path
         style="clip-rule:evenodd"
         id="path11877"
         d="m 547.3,74.064 h 201.62 v 71.784 H 547.3 Z" /></clipPath><clipPath
       id="clipPath11887"
       clipPathUnits="userSpaceOnUse"><path
         style="clip-rule:evenodd"
         id="path11885"
         d="m 547.3,74.064 h 201.62 v 71.784 H 547.3 Z" /></clipPath><clipPath
       id="clipPath11899"
       clipPathUnits="userSpaceOnUse"><path
         style="clip-rule:evenodd"
         id="path11897"
         d="m 547.3,74.064 h 201.62 v 71.784 H 547.3 Z" /></clipPath><clipPath
       id="clipPath11907"
       clipPathUnits="userSpaceOnUse"><path
         style="clip-rule:evenodd"
         id="path11905"
         d="m 439.27,61.104 h 309.65 v 489.7 H 439.27 Z" /></clipPath><clipPath
       id="clipPath11915"
       clipPathUnits="userSpaceOnUse"><path
         style="clip-rule:evenodd"
         id="path11913"
         d="m 43.2,35.904 h 309.65 v 25.2 H 43.2 Z" /></clipPath><clipPath
       id="clipPath11923"
       clipPathUnits="userSpaceOnUse"><path
         style="clip-rule:evenodd"
         id="path11921"
         d="m 43.2,35.904 h 309.65 v 25.2 H 43.2 Z" /></clipPath><clipPath
       id="clipPath11935"
       clipPathUnits="userSpaceOnUse"><path
         style="clip-rule:evenodd"
         id="path11933"
         d="m 43.2,35.904 h 309.65 v 25.2 H 43.2 Z" /></clipPath><clipPath
       id="clipPath11943"
       clipPathUnits="userSpaceOnUse"><path
         style="clip-rule:evenodd"
         id="path11941"
         d="m 352.85,35.904 h 43.224 v 25.2 H 352.85 Z" /></clipPath><clipPath
       id="clipPath11951"
       clipPathUnits="userSpaceOnUse"><path
         style="clip-rule:evenodd"
         id="path11949"
         d="m 352.85,35.904 h 43.224 v 25.2 H 352.85 Z" /></clipPath><clipPath
       id="clipPath11959"
       clipPathUnits="userSpaceOnUse"><path
         style="clip-rule:evenodd"
         id="path11957"
         d="m 396.07,35.904 h 43.2 v 25.2 h -43.2 z" /></clipPath><clipPath
       id="clipPath11967"
       clipPathUnits="userSpaceOnUse"><path
         style="clip-rule:evenodd"
         id="path11965"
         d="m 396.07,35.904 h 43.2 v 25.2 h -43.2 z" /></clipPath><clipPath
       id="clipPath11975"
       clipPathUnits="userSpaceOnUse"><path
         style="clip-rule:evenodd"
         id="path11973"
         d="m 439.27,35.904 h 309.65 v 25.2 H 439.27 Z" /></clipPath><clipPath
       id="clipPath11983"
       clipPathUnits="userSpaceOnUse"><path
         style="clip-rule:evenodd"
         id="path11981"
         d="m 439.27,35.904 h 309.65 v 25.2 H 439.27 Z" /></clipPath><clipPath
       id="clipPath11995"
       clipPathUnits="userSpaceOnUse"><path
         style="clip-rule:evenodd"
         id="path11993"
         d="m 439.27,35.904 h 309.65 v 25.2 H 439.27 Z" /></clipPath><clipPath
       id="clipPath12003"
       clipPathUnits="userSpaceOnUse"><path
         style="clip-rule:evenodd"
         id="path12001"
         d="M 1.1802e-5,0 H 792.00001 V 612 H 1.1802e-5 Z" /></clipPath><clipPath
       id="clipPath12023"
       clipPathUnits="userSpaceOnUse"><path
         style="clip-rule:evenodd"
         id="path12021"
         d="M 0,612 H 792 V 6.1035e-5 H 7.629e-6" /></clipPath><clipPath
       id="clipPath12037"
       clipPathUnits="userSpaceOnUse"><path
         style="clip-rule:evenodd"
         id="path12035"
         d="M -2.2888e-5,612 H 792 V 6.1035e-5 H 2.2888e-5" /></clipPath><clipPath
       id="clipPath12047"
       clipPathUnits="userSpaceOnUse"><path
         style="clip-rule:evenodd"
         id="path12045"
         d="M -2.2888e-5,612 H 792 V 6.1035e-5 H 2.2888e-5" /></clipPath><clipPath
       id="clipPath12063"
       clipPathUnits="userSpaceOnUse"><path
         style="clip-rule:evenodd"
         id="path12061"
         d="M 0,612 H 792 V 6.1035e-5 L 6.1035e-5,1.2207e-4" /></clipPath><clipPath
       id="clipPath12075"
       clipPathUnits="userSpaceOnUse"><path
         style="clip-rule:evenodd"
         id="path12073"
         d="M -3.0518e-5,612 H 792 V -6.1035e-5 H -3.0518e-5" /></clipPath><clipPath
       id="clipPath12087"
       clipPathUnits="userSpaceOnUse"><path
         style="clip-rule:evenodd"
         id="path12085"
         d="M 0,612 H 792 V 1.2207e-4 H 6.1035e-5" /></clipPath><clipPath
       id="clipPath12097"
       clipPathUnits="userSpaceOnUse"><path
         style="clip-rule:evenodd"
         id="path12095"
         d="M 0,612 H 792 V 1.2207e-4 H 6.1035e-5" /></clipPath></defs><g
     transform="matrix(1.3333333,0,0,-1.3333333,0,256)"
     id="g9981"><path
       id="path12055"
       style="fill:#000000;fill-opacity:1;fill-rule:nonzero;stroke:none;stroke-width:2.98598409"
       d="m 25.768001,46.638472 -2.120049,13.407068 -0.686775,6.270567 -0.447898,6.001827 -0.209019,5.73309 0.08958,5.434491 0.328458,5.225472 0.537477,4.986593 0.836076,4.83729 1.045095,4.59842 1.313832,4.41926 1.552712,4.2401 1.79159,4.12065 2.030469,4.00122 2.269349,3.88177 2.508225,3.76235 2.896405,3.73248 3.404022,3.67276 3.7922,3.52346 4.150518,3.40403 4.419255,3.28458 4.717855,3.07555 4.897014,2.89642 5.046314,2.71723 5.135892,2.4485 5.165752,2.20965 5.165752,1.91102 5.135893,1.64229 4.956733,1.28397 4.867152,0.92567 4.62827,0.56732 4.3894,0.14931 4.29983,-0.2986 4.38939,-0.74649 4.44911,-1.13469 4.41925,-1.52283 4.41927,-1.85133 4.35953,-2.14991 4.26996,-2.4485 4.15052,-2.68739 4.03108,-2.86655 3.7922,-3.10542 3.61303,-3.25471 3.34432,-3.37416 3.07555,-3.52346 2.71724,-3.55332 2.41866,-3.64291 2.00061,-3.70262 1.67214,-3.91165 1.46313,-4.32967 1.25412,-4.62828 1.0451,-4.95672 0.77636,-5.13589 0.56732,-5.315056 0.2986,-5.404632 0.03,-5.434491 -0.23887,-5.404631 -0.53748,-5.255331 -0.83607,-5.165753 -1.13468,-4.897014 -1.49299,-4.598416 -1.8513,-4.269956 -2.20965,-3.82206 -1.31382,-1.761731 -1.37356,-1.61243 -1.55271,-1.522853 -1.73187,-1.433272 -1.88117,-1.373552 -2.06033,-1.313833 -2.20962,-1.283974 -2.32907,-1.194393 -5.01645,-2.209629 -5.46436,-2.000609 -5.73308,-1.76173 -6.00184,-1.552712 -6.12127,-1.254114 -6.15112,-1.045094 -6.09141,-0.746496 -5.97197,-0.477757 -5.73308,-0.179159 -5.344914,0.119436 -2.567946,0.179159 -2.418646,0.268739 -2.299209,0.328458 -2.179767,0.447897 -2.03047,0.537478 -1.88117,0.656916 -1.791591,0.776355 -1.73187,0.955516 -1.672151,1.104814 -1.642291,1.283973 -3.015845,2.836685 -2.776964,3.314442 -2.567946,3.672761 -2.299208,3.971358 -2.06033,4.180377 -1.79159,4.359537 -1.552711,4.449116 -1.254113,4.449117 -0.985375,4.419256 -0.716637,4.299816 -0.388177,4.120659 -0.05971,3.911639 0.298599,3.642901 0.656916,3.224862 1.015234,2.956124 1.313834,2.866545 1.642291,2.836692 1.911029,2.71725 2.209628,2.62765 2.508227,2.50823 2.806825,2.41865 3.105424,2.23949 3.344301,2.12005 3.613041,1.94089 3.911638,1.79159 4.240098,1.64228 4.389396,1.07496 1.074954,-4.32967 -4.240096,-1.07496 0.268738,0.0895 -4.060938,-1.5527 0.119436,0.0598 -3.76234,-1.73188 0.119436,0.0598 -3.493601,-1.88118 0.149299,0.0895 -3.224863,-2.06031 0.119436,0.0895 -2.956123,-2.14991 0.149299,0.1194 -2.687386,-2.29923 0.149299,0.1194 -2.418648,-2.38878 0.1493,0.1493 -2.090189,-2.47835 0.119436,0.1194 -1.82145,-2.5381 0.119436,0.17916 -1.522852,-2.657526 0.08958,0.209018 -1.194393,-2.657526 0.05971,0.17916 -0.925655,-2.717246 0.05971,0.268738 -0.597197,-2.956124 0.02987,0.268739 -0.268739,-3.374161 v 0.209018 l 0.05971,-3.73248 v 0.179159 l 0.358318,-3.941499 v 0.119436 l 0.656917,-4.150518 -0.02987,0.119436 0.985374,-4.299817 -0.02987,0.149299 1.224254,-4.329676 -0.02987,0.119436 1.492992,-4.329677 -0.05971,0.119436 1.76173,-4.240097 -0.05971,0.149299 2.00061,-4.060938 -0.08958,0.149299 2.209628,-3.82206 -0.08958,0.1493 2.448507,-3.493601 -0.119436,0.149299 2.627666,-3.135283 -0.17916,0.179159 2.866546,-2.687386 -0.17916,0.149299 1.492992,-1.164534 -0.149299,0.08958 1.522852,-0.985375 -0.17916,0.08958 1.582572,-0.865934 -0.179158,0.08958 1.612431,-0.716637 -0.17916,0.08958 1.731871,-0.597197 -0.149299,0.05971 1.881171,-0.507618 -0.119436,0.02987 2.060328,-0.418036 h -0.1493 l 2.209629,-0.298599 h -0.05971 l 2.358927,-0.268739 -0.119436,0.02987 2.478368,-0.179158 h -0.119472 l 5.255334,-0.119436 h -0.11944 l 5.58381,0.179158 h -0.0895 l 5.85253,0.477758 -0.0895,-0.02987 6.00181,0.746496 -0.0895,-0.02987 6.06156,1.015234 h -0.0895 l 6.03168,1.254113 -0.1194,-0.02987 5.88239,1.522852 -0.0895,-0.02987 5.64352,1.731871 -0.1194,-0.05971 5.3449,1.970749 -0.1493,-0.05971 4.89702,2.179769 -0.1194,-0.05971 2.23949,1.134673 -0.0895,-0.05971 2.12004,1.224255 -0.0895,-0.05971 1.94089,1.254112 -0.1194,-0.08958 1.79159,1.313834 -0.1194,-0.08958 1.61244,1.343692 -0.14929,-0.149299 1.43325,1.373553 -0.14929,-0.119436 1.25412,1.463132 -0.0895,-0.119436 1.1944,1.612432 -0.14931,-0.20902 2.0902,3.583181 -0.1194,-0.209019 1.76172,4.031079 -0.0598,-0.20902 1.40341,4.419257 -0.0598,-0.179159 1.13467,4.747715 -0.03,-0.149299 0.80622,4.986593 -0.03,-0.119436 0.50761,5.135892 v -0.119436 l 0.23889,5.285192 v -0.119436 l -0.03,5.315051 v -0.119436 l -0.29861,5.315052 v -0.08958 l -0.53748,5.195605 0.03,-0.1194 -0.77634,5.01646 v -0.0895 l -0.98538,4.80744 0.03,-0.1194 -1.22426,4.50883 0.03,-0.1194 -1.4034,4.15052 0.0598,-0.1493 -1.61243,3.73248 0.0895,-0.17916 -1.88118,3.52346 0.0895,-0.17917 -2.2992,3.49362 0.0895,-0.1194 -2.65753,3.43389 0.0895,-0.1194 -2.95612,3.40401 0.0895,-0.0895 -3.25472,3.28458 0.0895,-0.0895 -3.52347,3.16515 0.0895,-0.0598 -3.70262,3.01584 0.0895,-0.0895 -3.91163,2.83668 0.0895,-0.0598 -4.06094,2.5978 0.1194,-0.0598 -4.18038,2.38878 0.1194,-0.0895 -4.21024,2.0902 0.1194,-0.0598 -4.26996,1.79159 0.1194,-0.03 -4.26996,1.46313 0.17917,-0.0598 -4.26996,1.10482 0.17915,-0.03 -4.18038,0.68678 0.20903,-0.03 -4.06095,0.2986 h 0.20902 l -4.18037,-0.1493 0.20902,0.03 -4.47899,-0.53748 0.17916,0.03 -4.717852,-0.92566 0.149299,0.03 -4.867154,-1.25411 0.119436,0.03 -5.016453,-1.58258 0.08958,0.03 -5.046313,-1.88116 0.08958,0.03 -5.076173,-2.14992 0.08958,0.03 -5.046313,-2.38878 0.08958,0.03 -4.926873,-2.65752 0.05971,0.03 -4.807434,-2.83669 0.08958,0.0598 -4.628276,-3.01585 0.119436,0.0598 -4.359536,-3.195 0.08958,0.0598 -4.031078,-3.31443 0.08958,0.0895 -3.672761,-3.43388 0.119436,0.1194 -3.254723,-3.55333 0.119436,0.1493 -2.806824,-3.58319 0.08958,0.14931 -2.418648,-3.6429 0.05971,0.0895 -2.209627,-3.76235 0.05971,0.1194 -1.970751,-3.88177 0.05971,0.1194 -1.70201,-3.97135 0.02987,0.1194 -1.492992,-4.15053 0.02987,0.14929 -1.254113,-4.2998 0.02987,0.14929 -1.045094,-4.478972 0.02987,0.119436 -0.806217,-4.687996 0.02987,0.149299 -0.537476,-4.897014 v 0.119436 l -0.298598,-5.106032 v 0.119436 l -0.08958,-5.374771 v 0.119436 l 0.179158,-5.64351 V 72.6173 l 0.447898,-5.912248 v 0.05971 l 0.686776,-6.180988 -0.02987,0.119436 2.120049,-13.347348 z m 11.048141,1.82145 c 0.806216,-4.867153 -2.478366,-9.495428 -7.345521,-10.301645 -4.897014,-0.806215 -9.495428,2.478367 -10.331504,7.375381 -0.806215,4.867154 2.478367,9.495429 7.37538,10.301645 4.867154,0.806215 9.495429,-2.478367 10.301645,-7.375381 z m 52.015842,78.620968 19.408896,-4.92688 -15.586838,-12.571 z" /></g></svg>