<?xml version="1.0" standalone="no"?> <!DOCTYPE svg PUBLIC "-//W3C//DTD SVG 1.0//EN" "http://www.w3.org/TR/2001/REC-SVG-20010904/DTD/svg10.dtd" > <svg xmlns="http://www.w3.org/2000/svg" width="100%" height="100%">
<defs >
<font horiz-adv-x="413" ><font-face
    font-family="Harry Potter"
    units-per-em="1000"
    panose-1="0 0 4 0 0 0 0 0 0 0"
    ascent="806"
    descent="-691"
    alphabetic="0" />
<missing-glyph horiz-adv-x="500" d="M63 0V800H438V0H63ZM125 63H375V738H125V63Z" />
<glyph unicode=" " glyph-name="space" horiz-adv-x="348" />
<glyph unicode="A" glyph-name="A" horiz-adv-x="764" d="M764 -200H529L563 -165L454 239Q444 236 412 212Q370 185 327 185H312L271 -64L317 -111H67L113 -64L154 170Q143 177 119 189Q78 207 27 239Q-2 278 -2 303Q-2 310 0 316Q6 330 26 341T62 351Q71 351
108 347Q94 340 69 324Q58 317 58 302Q58 271 85 262Q96 259 184 250L250 749L207 795L354 800L544 790L513 759L612 366Q623 366 643 374Q665 381 705 374L674 351Q670 354 664 354Q655 354 644 348T605 312L721 -158L764 -200ZM454 312L386 762L384 760L322 259Q324
257 329 257Q344 257 373 274Q393 285 454 312Z" />
<glyph unicode="B" glyph-name="B" horiz-adv-x="568" d="M518 -56L496 -124Q477 -141 435 -167Q420 -172 383 -172Q344 -172 328 -167Q307 -160 216 -71L212 -195L15 -183L82 -139L85 358L59 775L53 795L220 791L224 730Q312 767 334 766Q344 762 403 694T469
612Q475 578 453 356L433 321Q489 278 539 199Q546 165 518 -56ZM335 683Q305 696 263 696Q243 696 223 693L219 387Q304 373 385 356Q384 376 378 604Q380 612 380 619Q380 647 359 667Q343 683 335 683ZM399 261Q381 277 364 289Q323 320 294 328L231 334L218
-26Q357 -49 407 -67Q419 -55 419 68Q419 126 416 205Q417 211 417 217Q417 242 399 261Z" />
<glyph unicode="C" glyph-name="C" horiz-adv-x="553" d="M553 -52Q538 -97 462 -148T340 -200Q231 -200 164 -114Q145 -88 130 -63Q94 -2 85 46L74 511L0 525L28 595Q49 576 74 581Q88 586 92 603T102 638Q110 649 134 668Q194 716 329 800Q388 806 463 739Q490
700 490 667Q490 646 480 633Q455 606 312 525Q298 518 250 490V-31Q283 -108 334 -117Q372 -119 410 -93T451 -35Q459 91 439 156Q424 162 404 162Q367 162 329 138L383 223Q434 243 455 238Q555 201 553 118Q552 49 553 -52ZM369 687Q353 693 338 693Q323 693
312 687Q300 678 289 665Q265 632 255 581Q297 588 329 617Q337 626 345 636Q362 661 369 687Z" />
<glyph unicode="D" glyph-name="D" horiz-adv-x="513" d="M486 32Q487 25 487 18Q487 -58 391 -131Q386 -133 357 -157Q333 -177 320 -172Q303 -166 240 -132Q174 -97 162 -85L158 -200L0 -188L75 -138L78 347L52 754L45 779L169 771V713Q236 790 313 800Q411
800 442 770Q486 727 486 582V32ZM382 551Q384 561 384 572Q384 614 364 655Q318 691 306 691Q302 691 302 688L172 637L176 15Q253 -20 320 -20Q333 -20 342 -19Q350 13 356 80Q373 241 382 551Z" />
<glyph unicode="E" glyph-name="E" horiz-adv-x="645" d="M645 -90L273 -200L285 -141L60 -185L136 -134L139 251Q75 265 52 286Q0 333 0 367Q0 377 6 385Q33 411 132 408Q108 402 91 387Q72 368 72 364Q72 358 88 351Q100 346 139 340V359L113 774L106 800L284
796L287 737Q480 755 528 750L602 789L605 655L515 688L302 657L284 328Q311 328 323 330Q368 339 483 379Q520 390 569 390Q587 390 605 388Q480 341 402 285Q379 267 341 260Q312 255 283 251L285 -37L636 -21L645 -90Z" />
<glyph unicode="F" glyph-name="F" horiz-adv-x="546" d="M546 654L456 687L242 657L226 365L483 389L529 436L532 296L488 324L231 274L217 -200L0 -187L77 -136L78 337L92 748L46 800L224 796L228 737Q421 755 469 750L543 788L546 654Z" />
<glyph unicode="G" glyph-name="G" horiz-adv-x="686" d="M653 -8Q619 -8 552 21Q553 -15 553 -52Q538 -97 462 -148T340 -200Q231 -200 164 -114Q145 -88 130 -63Q94 -2 85 46L81 197Q63 203 13 224L51 230Q62 229 81 228L74 511L0 525L28 595Q49 576 74 581Q88
586 92 603T102 638Q110 649 134 668Q194 716 329 800Q388 806 463 739Q490 700 490 667Q490 646 480 633Q455 606 312 525Q298 518 250 490V234Q303 241 352 236Q493 223 533 206Q566 192 606 164Q654 129 666 103Q686 61 686 30Q686 -8 653 -8ZM369 687Q353 693
338 693Q323 693 312 687Q300 678 289 665Q265 632 255 581Q297 588 329 617Q337 626 345 636Q362 661 369 687ZM598 69T551 96Q550 84 552 23Q577 20 593 26Q619 37 619 42Q619 47 609 58ZM454 -4T454 25Q454 103 439 154Q406 168 360 171Q322 174 250 173V-31Q283
-108 334 -117Q373 -119 411 -93T451 -35Z" />
<glyph unicode="H" glyph-name="H" horiz-adv-x="753" d="M753 427L720 402Q716 405 709 405Q699 405 688 399T646 361V-155L691 -200H441L478 -163L486 284Q475 280 441 255Q396 226 351 226H334V-81L384 -130H117L166 -81V210Q155 217 129 230T76 256Q38 275
31 284Q0 325 0 352Q0 359 3 366Q8 380 30 392T68 402Q78 402 117 398Q102 391 76 374Q64 366 64 350Q64 317 93 308Q105 304 171 284V722L125 771H371L345 745V304Q348 302 352 302Q369 302 400 320Q421 333 486 361V767L453 800H687L654 767V419Q666 419 687
427Q711 435 753 427Z" />
<glyph unicode="I" glyph-name="I" horiz-adv-x="222" d="M201 362L182 128L135 203L124 -24L87 24L72 -200L17 183L50 155L10 414L47 390L21 776L14 800L190 797L193 741L201 362Z" />
<glyph unicode="J" glyph-name="J" horiz-adv-x="429" d="M429 530L361 521V-84L116 -200L9 -110L0 -71L159 -76L86 -114Q118 -158 137 -161Q144 -160 154 -154Q179 -139 219 -101L236 793Q235 798 236 800V793Q239 778 260 742Q276 716 429 530Z" />
<glyph unicode="K" glyph-name="K" horiz-adv-x="668" d="M668 60L421 -110L428 17L227 255L196 -123Q224 -150 264 -200L6 -199Q-22 -207 67 -123L113 578L7 526Q169 731 214 800L242 403L531 783L668 578L531 562Q367 361 333 334L531 106L668 60Z" />
<glyph unicode="L" glyph-name="L" horiz-adv-x="581" d="M581 -6L568 -113L459 -200H76V493L0 502Q140 667 186 736Q198 755 213 793V800Q214 797 213 793L234 -111L438 -113Q445 -112 452 -107Q469 -93 489 -60L477 -16L581 -6Z" />
<glyph unicode="M" glyph-name="M" horiz-adv-x="1054" d="M1054 -164L824 -200L871 -59L751 330L591 -21L667 -159L407 -168L482 -48L364 335L195 -36L254 -188L20 -163L98 -37L298 425Q177 749 161 750Q154 750 146 745Q126 732 99 699L173 643L0 656L14 702L142
800L384 625L550 108L711 511L643 635L853 631L813 524L982 -35L1054 -164Z" />
<glyph unicode="N" glyph-name="N" horiz-adv-x="732" d="M732 -200L477 -193L523 -156L522 -88L213 594L198 -22L332 -95H0L61 -46L66 751L10 800H317L283 774L279 726L555 133L569 745L492 800L727 793L686 760L676 -155L732 -200Z" />
<glyph unicode="O" glyph-name="O" horiz-adv-x="584" d="M583 377Q584 316 584 266Q584 103 569 25Q555 -44 519 -87Q425 -200 350 -200Q237 -200 169 -114Q149 -88 134 -63Q97 -2 87 46L76 511L0 525L29 595Q51 576 76 581Q90 586 95 603T105 638Q113 649 138
668Q199 716 338 800Q399 806 476 739Q536 682 553 634Q579 562 583 377ZM379 687Q363 693 348 693Q332 693 321 687Q308 678 297 665Q272 632 262 581Q306 588 338 617Q347 626 354 636Q372 661 379 687ZM403 -23L402 567Q353 541 321 525Q306 518 256 490V-31Q272
-111 321 -102Q338 -96 353 -86Q388 -62 403 -23Z" />
<glyph unicode="P" glyph-name="P" horiz-adv-x="463" d="M430 628Q436 595 416 386L382 328Q354 299 342 294T297 286Q262 284 251 290Q245 293 239 302Q225 321 209 362L192 128L147 203L137 -24L102 24L89 -200L37 183L68 155L30 414L64 390L40 776L33 800L199
797L202 741Q282 775 302 772Q313 769 368 705T430 628ZM292 659Q295 672 295 682Q295 705 282 707Q271 707 202 697L199 421Q273 408 289 410Q298 431 292 659ZM292 362L240 369Q244 340 261 341Q272 346 292 362Z" />
<glyph unicode="Q" glyph-name="Q" horiz-adv-x="673" d="M658 -200Q652 -203 640 -203Q603 -203 537 -173Q561 -177 581 -170Q607 -159 607 -154Q607 -149 598 -139Q563 -105 443 -50Q377 -117 321 -117Q260 -117 220 -95T142 -21Q115 -16 8 26L45 32Q76 30 112
28Q99 51 80 109L69 535L0 548L27 612Q47 594 69 599Q83 603 87 619T96 651Q103 661 127 679Q182 723 310 800Q366 805 436 744Q492 692 508 648Q531 582 534 412Q536 356 536 310Q536 88 497 17Q512 13 522 8Q555 -5 594 -34Q642 -68 654 -94Q673 -136 673 -166Q673
-191 658 -200ZM347 696Q333 702 319 702Q304 702 293 695T273 676Q250 646 241 599Q280 605 310 632Q318 640 325 649Q341 672 347 696ZM370 45L369 587Q324 563 294 548Q281 541 235 516V38Q249 -35 294 -27Q310 -21 324 -12Q356 10 370 45Z" />
<glyph unicode="R" glyph-name="R" horiz-adv-x="817" d="M817 16L541 -62L561 34L280 392Q330 435 356 463Q389 501 389 561Q389 599 374 613Q360 623 329 623Q300 623 261 613V-96Q298 -136 351 -151Q403 -162 427 -162V-200Q282 -190 181 -162Q136 -148 0 -118L10
-79Q44 -85 60 -63Q100 6 100 64V586L55 591L60 624L246 800L261 696L419 783Q500 702 524 624Q539 569 539 549Q539 518 514 503Q508 499 481 466T422 412L676 59L817 16Z" />
<glyph unicode="S" glyph-name="S" horiz-adv-x="502" d="M481 56L143 -200Q8 22 18 65Q27 74 49 88Q101 121 206 173L225 146Q170 121 152 65Q149 49 149 34Q149 -33 201 -41Q229 -45 263 9Q291 51 314 114Q322 138 322 169Q322 211 306 251L47 208Q16 286 0
365Q-8 446 16 519L334 800Q486 589 479 546Q470 536 450 520Q401 483 300 423L279 449Q307 475 316 502T326 564Q326 635 289 637Q255 639 218 603T174 516Q173 513 158 432Q147 372 149 359Q284 364 334 356Q394 342 421 328Q455 311 476 278Q502 233 502 168Q502
113 481 56Z" />
<glyph unicode="T" glyph-name="T" horiz-adv-x="973" d="M959 548Q973 492 973 443Q973 365 939 337Q923 325 891 325Q837 325 760 362Q796 359 830 379Q870 405 880 415Q907 440 902 471Q888 559 814 617T640 675Q622 675 603 673Q557 665 480 655L466 -135L524
-200H268L333 -142L336 626Q293 614 225 601Q201 590 162 590Q90 590 0 630L58 652Q185 659 249 670Q262 673 328 696L327 800L484 771L486 735Q502 737 515 737Q726 746 783 722Q829 702 883 655Q947 598 959 548Z" />
<glyph unicode="U" glyph-name="U" horiz-adv-x="628" d="M628 800L601 763Q601 382 601 412Q595 142 585 65Q573 -33 533 -81Q434 -200 354 -200Q235 -200 162 -108Q141 -81 125 -54Q86 10 76 61L63 554L37 677L0 717L234 745L166 669L178 489L255 -21Q267 -98
324 -96Q347 -91 367 -78Q415 -46 434 19L462 717L375 797L628 800Z" />
<glyph unicode="V" glyph-name="V" horiz-adv-x="656" d="M656 693L587 529L387 -200L91 576L0 725L239 800L205 621L375 158L485 514L405 693H656Z" />
<glyph unicode="W" glyph-name="W" horiz-adv-x="1314" d="M1314 -39L1303 -87L1169 -200L870 -48L617 458L426 -85L92 669L0 738L259 800L211 717L414 211L554 584L451 716L747 753L676 624L858 248L1006 642L920 790H1191L1117 655L945 163Q1122 -152 1142 -152Q1149
-150 1158 -144Q1179 -129 1206 -92L1115 -44L1314 -39Z" />
<glyph unicode="X" glyph-name="X" horiz-adv-x="934" d="M934 -172L623 -200L677 -88L501 199L479 218L282 -71L374 -193L52 -171L149 -72L399 315L117 658L0 747L308 791L264 684L484 405L660 693L557 800H880L792 702L574 326L826 -69L934 -172Z" />
<glyph unicode="Y" glyph-name="Y" horiz-adv-x="862" d="M888 722L851 673Q702 293 634 164Q554 9 475 -147Q330 -425 273 -500Q-51 -472 -156 -439Q-251 -402 -255 -400Q-300 -378 -300 -350Q-300 -342 -297 -334Q-290 -317 -277 -299Q-244 -256 -187 -218L-21
-242L-37 -277Q-67 -271 -101 -273Q-129 -275 -147 -291T-165 -325Q-165 -338 -156 -347Q-142 -354 -104 -361Q-12 -378 187 -390L360 -97L148 686L99 710V735L406 741L412 710L328 689L468 113L704 667L643 716L888 722Z" />
<glyph unicode="Z" glyph-name="Z" horiz-adv-x="750" d="M750 -121L0 -200L559 705L177 721L41 514L55 800L737 768L218 -73L655 -10L723 276L750 -121Z" />
<glyph unicode="a" glyph-name="a" horiz-adv-x="367" d="M362 41L265 -85Q244 -93 225 -87Q214 -78 196 -40Q143 -70 122 -85Q109 -95 92 -95Q75 -95 63 -86T33 -18Q16 35 12 67Q2 156 21 193Q29 210 88 273L181 269V248Q134 228 126 206Q125 200 125 185Q125
137 132 84Q139 19 151 12Q158 8 167 8Q183 8 198 20V408Q189 425 160 416Q132 407 130 406Q117 401 101 387Q95 381 90 372Q78 352 75 324Q56 355 37 391Q27 414 27 443Q27 455 29 467L172 543L326 389V41H362Z" />
<glyph unicode="b" glyph-name="b" horiz-adv-x="498" d="M498 229Q493 -60 471 -113Q455 -137 313 -200Q265 -205 69 -84V521L0 530Q127 679 169 742Q180 760 193 795V800Q194 798 193 795L210 508V-101Q273 -141 295 -144Q303 -144 343 -114L359 94Q362 133
362 163Q362 239 346 252Q308 258 241 201L244 295Q282 329 344 329Q361 329 375 327Q399 320 420 309Q470 280 498 229Z" />
<glyph unicode="c" glyph-name="c" horiz-adv-x="361" d="M343 336L172 323L244 372Q219 392 187 392Q172 387 144 329Q103 247 100 139Q95 107 116 17Q133 -55 144 -84Q193 -70 227 -56L180 20L332 -62L300 -96L117 -149L5 11L-2 150L31 345L199 445L327 381L343 336Z" />
<glyph unicode="d" glyph-name="d" horiz-adv-x="479" d="M479 543L412 540L399 -49Q287 -200 185 -200Q156 -200 136 -188Q91 -157 65 -136Q14 -96 4 -75T-7 48Q-7 133 0 259Q50 335 127 345Q207 354 251 340L248 213Q187 274 150 270Q125 252 126 118V-86Q153
-115 172 -119Q180 -119 284 -58L308 800L479 543Z" />
<glyph unicode="e" glyph-name="e" horiz-adv-x="375" d="M363 229L310 237L248 251L159 282Q150 173 150 100Q150 44 155 20Q170 -40 194 -40Q202 -40 211 -33T231 -6Q254 40 279 131Q334 76 334 59Q332 52 305 11Q232 -84 208 -95Q186 -98 137 -86L13 47L31
415Q113 497 190 530Q204 535 218 535Q254 535 294 501Q317 478 341 455Q363 422 363 229ZM243 317Q236 353 217 423Q214 434 203 449T183 465Q173 465 168 446Q155 392 155 326L243 317Z" />
<glyph unicode="f" glyph-name="f" horiz-adv-x="417" d="M422 484L280 489L346 523Q318 562 300 566Q292 566 227 512V101H312L315 32H223L226 -321L267 -387L69 -400L112 -341L95 61L-10 42L3 114H95L100 498L319 600L415 519L422 484Z" />
<glyph unicode="g" glyph-name="g" horiz-adv-x="429" d="M405 399Q401 354 374 174Q355 53 337 -67Q329 -124 301 -261Q268 -417 245 -501Q-19 -577 -111 -583Q-200 -583 -208 -582Q-252 -576 -253 -544Q-253 -529 -248 -511Q-235 -467 -202 -420L-64 -388L-67
-421Q-92 -425 -118 -437Q-154 -455 -154 -486Q-154 -504 -139 -511Q-94 -517 144 -441L212 -179Q66 -164 66 -143Q66 -142 67 -141Q42 -115 42 -24Q42 38 53 105Q64 168 77 188Q136 277 151 293Q217 367 293 375L308 328L405 399ZM289 241H222L154 168L109 16Q103
-84 184 -84Q203 -84 226 -78L289 241Z" />
<glyph unicode="h" glyph-name="h" horiz-adv-x="523" d="M519 213Q523 203 523 177Q523 124 504 -7T484 -147Q484 -158 507 -200L325 -192Q331 -191 339 -186Q358 -173 385 -139L400 81Q389 197 355 217Q349 219 339 219Q314 219 274 208Q239 198 223 189L196
-124Q236 -188 256 -192L6 -200Q-21 -209 67 -124L112 574L7 522Q138 676 180 741Q205 780 205 797V800Q206 799 205 797L218 579L226 285Q286 316 354 316Q376 316 392 313Q448 302 478 276Q502 254 519 213Z" />
<glyph unicode="i" glyph-name="i" horiz-adv-x="337" d="M216 543Q216 508 192 483T134 457Q100 457 76 482T52 543Q52 579 76 604T134 629Q168 629 192 604T216 543ZM326 -298Q224 -290 152 -267Q120 -256 24 -231L31 -199Q56 -204 67 -186Q95 -131 95 -83Q95
-61 97 211L18 219L121 334L195 424L206 339V272L209 -213Q237 -249 273 -258T326 -267V-298Z" />
<glyph unicode="j" glyph-name="j" horiz-adv-x="253" d="M223 589Q223 549 194 522T122 494Q80 494 51 521T21 589Q21 628 50 656T122 684Q164 684 193 656T223 589ZM221 352L173 274V-51L158 -561L-84 -691L-186 -581L-193 -534L-38 -544L-111 -588Q-91 -623
-72 -623Q-62 -623 -55 -614Q-39 -603 41 -523L68 278L5 341L221 352Z" />
<glyph unicode="k" glyph-name="k" horiz-adv-x="581" d="M578 -98L384 -200L399 -117L185 122L163 -112Q196 -139 228 -184L6 -192Q-21 -201 66 -117L112 578L7 526Q137 679 180 744Q204 783 205 800L196 576L199 248L369 344L414 404L473 266L405 277Q298 203
235 176L469 -65L578 -98Z" />
<glyph unicode="l" glyph-name="l" horiz-adv-x="256" d="M256 -192L6 -200Q-21 -209 67 -124L112 574L7 522Q138 676 180 741Q205 780 205 797V800Q206 799 205 797L196 -124Q236 -188 256 -192Z" />
<glyph unicode="m" glyph-name="m" horiz-adv-x="886" d="M859 -152L681 -160Q686 -159 694 -153Q712 -138 735 -103L744 161Q748 278 694 278Q684 278 675 274Q641 249 581 207Q587 195 587 165Q587 116 569 -6Q552 -121 553 -134Q554 -145 579 -183L401 -192Q407
-190 415 -184Q433 -169 456 -135L465 129Q469 247 415 247Q405 247 396 243Q346 221 270 172L257 -99Q301 -157 322 -160L79 -189Q76 -190 75 -190Q61 -190 131 -110L157 247Q70 450 58 451Q51 452 15 419L67 384L-54 394L-44 422L45 482L204 387L264 266L435
365Q449 376 463 376Q504 376 544 297L714 396Q722 403 732 403Q762 403 802 351Q831 315 854 270Q861 257 861 218Q861 163 845 32Q831 -91 832 -102Q833 -114 859 -152Z" />
<glyph unicode="n" glyph-name="n" horiz-adv-x="543" d="M514 205Q517 197 517 180Q517 131 489 -11T460 -163Q460 -174 482 -215L304 -208Q310 -207 318 -201Q337 -188 363 -156L395 106Q398 129 398 148Q398 228 352 228Q343 228 336 225Q284 208 204 166L178
-141Q217 -203 237 -208L-8 -215Q-35 -224 51 -141L103 254L0 204Q88 297 135 350Q165 379 196 415L207 260L385 344Q393 349 402 349Q432 349 468 293Q494 254 514 205ZM196 395Q196 397 196 398V395Z" />
<glyph unicode="o" glyph-name="o" horiz-adv-x="395" d="M360 133Q363 5 353 -50Q344 -100 316 -127Q253 -191 202 -191Q126 -191 79 -142Q66 -128 55 -113Q30 -79 24 -52L16 208L-35 216L-15 256Q-1 245 16 248Q26 250 29 259T36 280Q41 286 58 297Q100 324
194 370Q235 374 287 336Q328 304 340 278Q357 237 360 133ZM222 307Q199 314 182 307Q173 302 166 295Q149 276 143 248Q172 252 194 268Q204 276 222 307ZM238 -91L237 240Q204 225 182 216Q172 212 139 197V-96Q149 -140 182 -136Q208 -118 238 -91Z" />
<glyph unicode="p" glyph-name="p" horiz-adv-x="433" d="M397 -25Q371 -64 303 -92Q244 -113 184 -135L180 -592L219 -611L228 -631L16 -628V-604L64 -566L85 277L-1 291L149 419L173 415L182 309L301 332Q310 338 320 338Q346 338 369 288Q383 252 393 166Q401
91 401 27Q401 -18 397 -25ZM293 53Q305 84 305 115Q305 174 272 206Q265 212 254 217Q227 228 182 232L181 -17Q215 -7 248 2Q278 14 293 53Z" />
<glyph unicode="q" glyph-name="q" horiz-adv-x="406" d="M473 -340L418 -422H317L319 -599L365 -636V-659L168 -660L177 -641L214 -623L218 -432L67 -463L114 -377H218L221 -156Q203 -149 179 -149Q159 -149 122 -156T70 -163Q36 -163 20 -138Q16 -132 16 -89Q16
-28 24 43Q33 125 47 160Q76 228 103 224L232 286L258 355L363 262L309 234L316 -367L473 -340ZM223 -44V192Q168 158 146 137Q133 124 120 89Q105 48 105 9Q105 -20 114 -44Q128 -78 142 -78Q151 -78 172 -68Q206 -51 223 -44Z" />
<glyph unicode="r" glyph-name="r" horiz-adv-x="327" d="M290 390Q300 356 300 344Q300 325 283 314Q271 307 190 255L176 273Q198 285 200 306Q200 373 186 383Q168 397 155 397V-49Q183 -77 218 -84T270 -91V-115Q170 -109 100 -91Q69 -82 -25 -63L-18 -39Q6
-42 17 -28Q45 14 45 51V380L13 383L17 404L145 515L155 449L218 491Q273 439 290 390Z" />
<glyph unicode="s" glyph-name="s" horiz-adv-x="347" d="M316 56L103 -105Q18 35 24 62Q31 70 143 130L155 113Q117 96 109 62Q106 52 106 42Q106 0 139 -5Q173 -9 211 93Q216 108 216 127Q216 154 205 179L43 152Q23 201 13 251Q8 302 23 348L223 525Q319 392
315 365Q309 356 202 287L189 304Q206 320 212 337T218 376Q218 421 195 422Q174 423 151 402Q127 378 122 346Q122 344 113 293Q106 255 107 247Q192 250 223 245Q292 229 313 196Q329 168 329 127Q329 92 316 56Z" />
<glyph unicode="t" glyph-name="t" horiz-adv-x="378" d="M359 -59L350 -97L237 -200L30 -72V371L-38 380Q89 529 99 592Q110 610 123 645V650Q124 648 123 645L136 435H239L235 358H140L148 -67Q208 -123 230 -124Q233 -130 239 -130Q252 -130 273 -101L200 -63L359
-59Z" />
<glyph unicode="u" glyph-name="u" horiz-adv-x="543" d="M537 -175Q407 -194 371 -212Q378 -138 380 -138L371 -92Q293 -152 212 -195Q203 -199 192 -199Q136 -199 61 -102Q43 -79 32 73Q19 239 17 244T-1 250Q-26 250 -74 232L119 416Q120 417 120 418L119 416Q105
397 106 261L143 17Q158 -83 203 -83Q215 -83 227 -75Q269 -47 330 11L278 295Q227 341 207 340L426 408Q429 410 430 410Q441 410 391 326L463 -110L537 -175Z" />
<glyph unicode="v" glyph-name="v" horiz-adv-x="552" d="M529 535L474 433L288 -95L47 387L-27 479L168 526L140 415L279 127L390 424L325 535H529Z" />
<glyph unicode="w" glyph-name="w" horiz-adv-x="717" d="M795 -172L789 -203L703 -275L513 -179L352 144L231 -202L27 206L-36 284L129 324L105 229L223 -14L312 224L247 308L435 331L390 249L505 10L600 261L545 355H717L670 269L561 -44Q673 -244 686 -244Q693
-244 727 -207L669 -176L795 -172Z" />
<glyph unicode="x" glyph-name="x" horiz-adv-x="588" d="M562 -198L366 -215L400 -144L289 36L275 48L151 -134L209 -211L6 -197L67 -134L225 110L47 325L-27 381L167 409L139 342L278 166L367 289L302 356H506L450 295L335 116L494 -132L562 -198Z" />
<glyph unicode="y" glyph-name="y" horiz-adv-x="633" d="M580 373Q434 103 338 -44Q297 -114 208 -252Q100 -419 31 -511Q-322 -480 -402 -483Q-442 -469 -520 -435Q-558 -414 -558 -389Q-558 -382 -555 -374Q-547 -355 -533 -336Q-498 -290 -437 -249L-263 -275L-277
-304Q-311 -297 -344 -300Q-376 -302 -398 -321T-420 -362Q-420 -377 -407 -387T-350 -406Q-247 -425 -24 -438L199 -97L97 343L7 383V401L269 403L279 368L225 355L289 60L480 386L420 434L668 440L580 373Z" />
<glyph unicode="z" glyph-name="z" horiz-adv-x="493" d="M492 -105L19 -155L309 275L83 290L8 194L17 374L447 354L156 -75L431 -35L474 145L492 -105Z" />
</font>
</defs>
</svg>
